<?xml version="1.0" standalone="no"?>
<!DOCTYPE svg PUBLIC "-//W3C//DTD SVG 20010904//EN"
 "http://www.w3.org/TR/2001/REC-SVG-20010904/DTD/svg10.dtd">
<svg version="1.0" xmlns="http://www.w3.org/2000/svg"
 width="1600.000000pt" height="1600.000000pt" viewBox="0 0 1600.000000 1600.000000"
 preserveAspectRatio="xMidYMid meet">
<metadata>
Created by potrace 1.14, written by Peter Selinger 2001-2017
</metadata>
<g transform="translate(0.000000,1600.000000) scale(0.100000,-0.100000)"
fill="#000000" stroke="none">
<path d="M7707 13464 c-1 -1 -63 -5 -137 -8 -74 -4 -151 -9 -170 -11 -102 -10
-159 -16 -195 -21 -81 -10 -130 -17 -150 -20 -11 -3 -36 -7 -55 -9 -19 -3 -44
-8 -56 -10 -12 -3 -39 -7 -60 -10 -21 -4 -47 -8 -56 -11 -10 -3 -30 -7 -45
-10 -16 -2 -39 -7 -53 -10 -14 -3 -35 -8 -48 -10 -12 -3 -75 -18 -140 -35 -64
-17 -124 -32 -132 -34 -90 -21 -308 -93 -327 -108 -7 -5 -13 -7 -13 -3 0 3
-17 -1 -37 -10 -21 -8 -45 -17 -53 -19 -8 -2 -28 -9 -45 -16 -16 -7 -32 -13
-35 -14 -9 -3 -65 -25 -85 -34 -11 -5 -40 -17 -65 -27 -25 -10 -47 -21 -50
-24 -3 -3 -11 -6 -19 -8 -8 -2 -47 -19 -88 -38 -40 -18 -75 -34 -77 -34 -2 0
-35 -18 -75 -39 -39 -22 -71 -36 -71 -33 0 4 -4 3 -8 -3 -4 -5 -45 -30 -92
-54 -47 -24 -103 -56 -125 -70 -22 -14 -42 -26 -45 -26 -11 -1 -95 -59 -102
-69 -4 -6 -8 -7 -8 -3 0 4 -20 -6 -44 -23 -25 -16 -47 -30 -50 -30 -3 0 -25
-15 -49 -32 -24 -18 -54 -40 -67 -48 -40 -26 -214 -154 -240 -176 -14 -12 -64
-53 -111 -90 -47 -38 -117 -96 -155 -129 -100 -88 -420 -408 -494 -495 -35
-41 -66 -77 -69 -80 -3 -3 -24 -27 -46 -55 -22 -27 -44 -55 -50 -61 -5 -6 -21
-27 -35 -47 -14 -20 -28 -37 -32 -37 -5 0 -8 -4 -8 -10 0 -5 -8 -18 -17 -28
-10 -10 -24 -27 -31 -38 -7 -10 -48 -70 -92 -132 -44 -62 -80 -117 -80 -122 0
-6 -3 -10 -8 -10 -4 0 -16 -17 -27 -37 -11 -21 -26 -44 -32 -51 -7 -7 -13 -19
-13 -27 0 -7 -7 -16 -16 -19 -8 -3 -12 -10 -9 -16 3 -5 2 -10 -4 -10 -5 0 -13
-10 -17 -22 -3 -12 -15 -30 -25 -41 -10 -11 -16 -24 -13 -28 2 -4 0 -10 -5
-14 -5 -3 -16 -18 -24 -33 -7 -15 -23 -43 -34 -62 -11 -19 -46 -87 -77 -150
-32 -63 -62 -122 -67 -130 -5 -8 -12 -22 -15 -30 -3 -8 -17 -38 -30 -67 -48
-107 -182 -445 -188 -475 -1 -7 -18 -60 -36 -118 -19 -58 -35 -109 -37 -115
-1 -5 -7 -28 -13 -50 -6 -22 -13 -51 -16 -65 -2 -14 -7 -32 -11 -40 -3 -8 -7
-19 -9 -25 -10 -38 -44 -188 -49 -212 -6 -36 -13 -71 -20 -103 -9 -43 -14 -73
-20 -115 -3 -22 -8 -47 -10 -55 -5 -15 -7 -34 -20 -135 -3 -27 -8 -61 -10 -75
-2 -14 -7 -56 -11 -95 -3 -38 -8 -81 -10 -95 -10 -81 -17 -283 -16 -470 0
-184 7 -385 12 -385 1 0 3 -22 5 -50 4 -62 14 -170 20 -210 3 -16 7 -50 10
-75 3 -25 8 -58 12 -75 3 -16 7 -49 7 -72 1 -22 4 -39 7 -37 3 2 6 -13 7 -32
1 -19 4 -39 7 -43 2 -5 7 -26 11 -47 21 -137 141 -599 171 -656 7 -16 11 -28
7 -28 -4 0 -2 -6 4 -12 6 -7 11 -17 11 -23 2 -23 86 -249 126 -340 7 -16 27
-64 45 -105 18 -41 36 -80 41 -86 5 -6 6 -14 2 -17 -3 -4 -2 -7 4 -7 5 0 16
-18 23 -40 7 -22 18 -40 23 -40 6 0 8 -3 4 -6 -5 -6 42 -101 64 -130 5 -6 6
-14 2 -17 -3 -4 -1 -7 6 -7 7 0 9 -4 6 -10 -3 -5 -3 -10 2 -10 4 0 17 -19 28
-43 33 -69 208 -355 292 -477 21 -30 183 -249 200 -270 7 -8 43 -54 82 -102
38 -48 72 -84 75 -81 3 4 6 1 6 -6 0 -7 13 -27 29 -44 238 -257 345 -363 521
-517 41 -36 79 -69 85 -73 5 -4 26 -21 45 -38 41 -36 249 -193 303 -229 20
-14 37 -28 37 -32 0 -5 5 -8 10 -8 6 0 33 -16 60 -35 27 -19 54 -35 60 -35 5
0 10 -5 10 -10 0 -6 8 -14 18 -17 9 -4 51 -28 93 -55 42 -26 81 -48 86 -48 6
0 13 -7 17 -15 3 -8 9 -14 13 -14 9 2 46 -12 53 -20 14 -16 494 -260 523 -265
12 -3 21 -7 114 -47 24 -11 50 -19 58 -19 8 0 15 -4 15 -8 0 -5 6 -9 13 -9 8
0 38 -9 68 -21 53 -20 89 -34 99 -37 3 -1 65 -20 138 -44 73 -24 139 -44 147
-45 8 -1 18 -5 21 -9 4 -4 19 -7 34 -7 15 0 30 -3 34 -7 3 -4 12 -8 19 -9 7
-1 50 -12 97 -24 47 -12 94 -23 105 -26 70 -16 321 -63 370 -68 17 -2 48 -7
70 -10 49 -8 254 -33 275 -34 8 0 58 -4 110 -8 179 -16 713 -9 895 11 17 2 55
6 85 9 74 8 155 20 223 32 39 7 83 14 117 19 14 2 50 8 80 15 30 6 70 13 89
16 19 2 37 7 41 9 4 3 25 7 46 11 22 3 44 10 50 15 6 5 13 7 16 4 3 -4 241 54
286 70 7 2 13 5 15 5 1 0 56 18 122 40 66 23 127 43 135 45 31 7 255 97 267
107 7 6 13 8 13 5 0 -5 35 9 180 75 88 39 135 63 141 71 3 5 9 8 13 8 9 -1 40
12 46 18 3 3 28 17 55 30 45 22 197 107 235 131 8 5 39 23 68 40 116 67 441
294 547 382 84 69 257 217 289 247 98 91 326 324 326 332 0 5 7 9 15 9 8 0 15
4 15 10 0 5 12 22 28 38 15 16 45 51 67 77 22 26 48 57 58 69 10 11 30 36 45
54 15 18 33 40 40 48 7 8 10 14 7 14 -4 0 6 12 22 28 16 15 44 51 63 80 18 28
37 52 42 52 4 0 8 7 8 15 0 8 5 15 12 15 6 0 9 3 6 6 -4 3 1 14 10 24 32 35
42 49 42 59 0 5 7 11 15 15 8 3 15 10 15 16 0 6 15 32 33 58 39 55 170 269
222 362 49 88 176 342 204 410 13 30 34 78 47 105 25 56 65 155 68 170 1 6 10
27 19 49 9 21 17 44 17 50 0 7 4 16 9 22 6 5 12 20 15 34 3 14 15 52 26 85 12
33 23 65 24 70 1 6 15 50 30 100 15 49 30 96 32 105 40 159 60 251 56 255 -3
3 0 5 7 5 7 0 10 4 7 9 -3 4 5 59 19 122 13 63 27 134 30 159 4 24 8 47 10 50
2 3 6 34 9 70 4 36 8 76 11 90 2 14 7 52 10 85 4 33 8 76 10 95 25 237 25 899
0 990 -2 8 -7 49 -11 90 -9 97 -11 118 -18 160 -6 33 -11 70 -22 150 -5 44
-24 140 -31 160 -3 8 -7 29 -8 45 -2 17 -16 80 -30 140 -15 61 -28 117 -30
125 -6 29 -48 175 -58 200 -3 8 -9 29 -13 45 -44 176 -206 579 -340 846 -81
159 -192 352 -297 514 -51 77 -94 142 -97 145 -3 3 -17 21 -30 40 -13 19 -30
41 -37 48 -7 7 -13 17 -13 22 0 5 -6 15 -12 22 -7 7 -35 42 -63 78 -27 36 -52
67 -55 70 -3 3 -21 25 -40 50 -19 25 -51 62 -70 83 -19 22 -44 50 -55 64 -11
14 -53 59 -92 101 -40 43 -73 80 -73 84 0 4 -9 10 -21 13 -11 4 -18 9 -16 12
7 6 -104 114 -289 283 -82 74 -164 142 -254 210 -47 36 -96 75 -110 88 -14 12
-28 22 -32 22 -3 0 -13 6 -20 13 -23 22 -256 177 -266 177 -6 0 -12 3 -14 8
-5 13 -179 117 -293 176 -22 12 -42 23 -45 26 -7 7 -222 115 -229 115 -3 1
-24 10 -46 22 -22 11 -89 42 -150 67 -60 26 -119 50 -130 55 -194 83 -762 256
-828 253 -9 0 -16 2 -13 6 2 4 -14 8 -35 9 -22 0 -45 6 -53 12 -7 6 -15 9 -17
6 -3 -2 -54 5 -114 16 -115 20 -202 34 -295 44 -30 4 -73 9 -95 11 -137 16
-338 26 -548 28 -104 1 -189 1 -190 0z m598 -168 c17 -2 62 -7 100 -10 39 -4
81 -8 95 -11 14 -2 50 -6 80 -9 30 -3 64 -8 75 -10 11 -2 43 -7 70 -10 61 -9
277 -52 360 -72 33 -9 69 -17 80 -19 21 -3 106 -26 163 -44 17 -5 32 -7 32 -4
0 3 6 1 13 -4 14 -11 108 -39 120 -35 4 1 7 -2 7 -8 0 -5 9 -10 20 -10 10 0
45 -10 77 -22 32 -12 60 -23 63 -23 8 -1 152 -56 190 -73 19 -8 37 -16 40 -17
28 -10 53 -20 97 -41 28 -13 55 -24 59 -24 7 0 364 -178 379 -189 6 -5 42 -25
80 -46 39 -20 77 -44 86 -51 8 -8 21 -14 27 -14 7 0 12 -4 12 -10 0 -5 5 -10
11 -10 12 0 320 -203 343 -226 8 -8 17 -14 21 -14 4 0 12 -6 20 -12 30 -29 55
-47 55 -40 0 4 4 2 8 -4 4 -7 45 -42 92 -79 83 -66 137 -110 249 -210 59 -52
338 -332 381 -382 14 -16 45 -52 70 -80 64 -71 118 -137 160 -193 14 -18 30
-38 35 -44 6 -6 35 -45 65 -86 30 -41 58 -76 62 -78 5 -2 8 -9 8 -16 0 -7 9
-21 20 -31 11 -10 20 -23 20 -30 0 -7 9 -20 20 -30 11 -10 20 -24 20 -32 0 -7
5 -13 10 -13 6 0 10 -7 10 -15 0 -9 7 -18 15 -21 8 -4 15 -13 15 -20 0 -8 5
-20 10 -27 23 -26 100 -153 100 -164 0 -6 4 -13 8 -15 10 -4 87 -141 85 -150
-2 -3 4 -12 12 -18 8 -7 15 -19 15 -26 0 -8 4 -14 10 -14 5 0 9 -3 7 -8 -1 -4
16 -41 38 -82 21 -41 40 -79 41 -85 1 -5 21 -50 44 -100 23 -49 45 -99 50
-110 4 -11 19 -47 33 -80 30 -71 53 -134 113 -315 25 -74 48 -142 51 -150 3
-8 7 -22 8 -30 2 -8 23 -95 49 -193 25 -98 47 -190 50 -205 2 -15 5 -27 6 -27
1 0 3 -11 4 -25 0 -14 4 -29 7 -35 3 -5 6 -21 7 -35 1 -14 9 -61 17 -105 9
-44 16 -87 16 -95 0 -8 4 -46 9 -85 5 -38 12 -97 15 -130 6 -58 8 -91 20 -255
5 -77 6 -468 1 -575 -3 -63 -14 -205 -21 -265 -12 -111 -25 -209 -38 -290 -3
-14 -8 -45 -11 -70 -7 -41 -41 -216 -52 -265 -3 -11 -7 -29 -9 -40 -3 -16 -30
-120 -61 -230 -3 -11 -7 -27 -9 -35 -2 -8 -4 -15 -5 -15 -2 0 -6 -17 -13 -45
-5 -24 -28 -93 -37 -115 -5 -11 -25 -69 -46 -130 -20 -60 -43 -126 -51 -145
-8 -19 -19 -44 -23 -55 -73 -176 -102 -239 -153 -345 -34 -69 -64 -127 -67
-130 -3 -3 -18 -30 -33 -60 -15 -30 -52 -95 -82 -145 -30 -49 -61 -104 -69
-121 -8 -17 -22 -36 -30 -43 -9 -7 -13 -17 -10 -22 3 -5 1 -9 -5 -9 -5 0 -12
-8 -16 -19 -5 -16 -16 -32 -55 -79 -6 -6 -8 -12 -5 -12 4 0 -4 -13 -17 -29
-12 -16 -34 -46 -48 -66 -14 -20 -31 -43 -38 -51 -7 -8 -10 -14 -6 -14 4 0 1
-6 -7 -12 -8 -7 -34 -38 -56 -68 -23 -30 -50 -64 -60 -75 -10 -11 -36 -44 -58
-73 -21 -28 -43 -52 -47 -52 -4 0 -8 -4 -8 -10 0 -5 -12 -22 -27 -38 -16 -16
-63 -67 -105 -114 -121 -134 -295 -304 -427 -418 -35 -30 -75 -65 -88 -78 -12
-13 -23 -20 -23 -17 0 3 -8 -3 -19 -12 -17 -17 -45 -40 -121 -100 -19 -16 -36
-31 -38 -35 -2 -5 -8 -8 -13 -8 -5 0 -35 -20 -66 -44 -61 -45 -347 -238 -373
-250 -8 -4 -24 -12 -35 -19 -11 -7 -42 -25 -70 -42 -27 -16 -53 -34 -57 -40
-4 -5 -8 -7 -8 -3 0 4 -27 -8 -59 -27 -33 -18 -69 -36 -80 -40 -12 -3 -21 -11
-21 -16 0 -5 -6 -9 -13 -9 -8 0 -54 -20 -103 -44 -154 -75 -415 -186 -439
-186 -8 0 -15 -4 -15 -8 0 -5 -6 -9 -12 -9 -7 0 -60 -17 -118 -37 -121 -43
-443 -136 -480 -140 -14 -1 -30 -4 -35 -8 -9 -5 -85 -20 -100 -19 -2 0 -19 -5
-37 -10 -18 -5 -51 -12 -73 -15 -22 -3 -47 -7 -55 -9 -8 -3 -33 -7 -55 -10
-22 -3 -65 -10 -95 -15 -30 -6 -80 -12 -110 -15 -30 -2 -73 -7 -95 -9 -167
-21 -324 -29 -560 -29 -192 0 -430 8 -495 18 -19 3 -64 7 -100 10 -36 3 -85 8
-110 11 -25 3 -56 7 -70 9 -14 2 -25 4 -25 5 0 1 -12 3 -26 5 -54 7 -104 16
-172 30 -38 8 -72 14 -75 13 -4 0 -9 1 -12 2 -7 2 -30 7 -70 15 -19 3 -69 15
-111 25 -42 11 -85 21 -95 23 -10 2 -26 7 -34 10 -16 6 -63 18 -92 23 -22 5
-316 102 -343 114 -11 5 -58 23 -103 40 -46 17 -91 35 -100 39 -10 5 -28 13
-42 18 -37 14 -99 43 -265 124 -82 40 -153 72 -157 71 -5 -1 -8 2 -8 8 0 5 -5
10 -11 10 -6 0 -49 23 -96 50 -47 28 -89 50 -94 50 -5 0 -9 4 -9 8 0 5 -16 14
-35 22 -19 8 -35 17 -35 21 0 3 -13 12 -30 19 -16 7 -30 16 -30 21 0 5 -5 9
-10 9 -6 0 -64 37 -131 83 -66 45 -127 87 -136 92 -9 6 -24 17 -33 25 -9 8
-30 24 -45 35 -30 21 -232 181 -251 200 -6 5 -40 35 -74 65 -172 150 -243 222
-490 491 -14 15 -38 44 -55 65 -16 20 -40 47 -52 60 -13 13 -23 27 -23 31 0 4
-17 27 -38 49 -20 23 -44 52 -52 64 -8 12 -36 50 -61 84 -93 124 -225 327
-332 511 -6 11 -18 31 -27 45 -8 14 -15 27 -15 30 0 3 -14 30 -32 60 -33 59
-156 308 -159 325 -1 6 -19 48 -39 95 -20 47 -46 110 -57 140 -11 30 -30 82
-43 115 -26 70 -32 87 -34 98 0 4 -7 23 -15 42 -9 20 -15 38 -15 40 0 3 -8 31
-18 63 -9 31 -18 62 -19 67 -2 6 -16 57 -33 114 -17 57 -30 106 -29 110 0 3
-1 9 -2 14 -1 4 -3 10 -4 15 -23 100 -37 162 -40 182 -3 14 -5 25 -6 25 -1 0
-3 9 -5 20 -1 11 -10 63 -19 115 -9 52 -19 109 -22 125 -3 17 -7 50 -9 75 -2
25 -4 45 -5 45 -1 0 -3 23 -6 50 -3 28 -7 68 -9 90 -13 115 -19 308 -18 545 1
255 4 336 19 486 4 38 8 86 8 106 1 21 5 38 9 38 5 0 6 3 4 8 -3 4 -1 34 4 67
5 33 11 80 15 105 8 62 72 379 78 389 3 5 8 23 11 42 4 32 69 268 82 299 3 8
7 20 8 25 6 24 84 245 93 262 6 10 10 20 10 23 2 19 91 240 104 254 4 6 8 18
8 28 0 10 5 18 10 18 6 0 10 7 10 16 0 9 13 40 30 70 16 30 30 56 30 59 0 7
73 150 99 195 11 19 31 55 43 80 13 25 26 47 29 50 3 3 21 32 39 65 19 33 37
62 42 63 4 2 8 8 8 14 0 13 196 302 261 385 27 35 49 67 49 73 0 5 4 10 8 10
5 0 36 35 71 79 34 43 72 90 84 103 138 153 186 205 272 292 55 56 115 113
133 129 19 15 30 27 26 27 -3 0 6 10 22 22 33 26 59 48 112 95 21 18 41 33 45
33 5 0 5 5 2 10 -3 6 1 10 9 10 8 0 19 6 23 13 4 6 35 32 68 57 33 25 63 49
66 53 3 5 18 16 31 25 14 9 80 56 147 105 67 48 125 87 130 87 5 0 11 3 13 8
2 4 28 23 58 42 30 19 61 40 68 47 7 7 17 13 22 13 4 0 32 16 61 35 30 19 58
34 63 34 5 0 12 3 15 8 6 8 9 10 101 59 30 16 58 33 61 37 3 5 9 8 13 8 3 -1
55 23 115 53 60 30 111 52 115 49 3 -4 6 -1 6 5 0 6 10 14 23 18 12 3 40 15
62 25 116 52 156 69 159 69 2 0 21 8 42 17 22 9 44 18 49 19 6 1 42 14 80 29
39 14 77 28 85 30 8 2 62 19 120 38 104 35 272 82 320 91 14 2 26 5 28 7 1 1
7 3 12 4 6 1 11 3 13 5 1 1 11 3 22 5 32 5 74 14 170 35 50 11 108 22 130 25
22 2 41 4 43 4 1 1 5 2 10 3 52 13 182 30 244 32 27 0 48 3 48 7 0 3 10 5 23
5 56 2 242 17 246 20 6 6 687 -4 726 -10z"/>
<path d="M7956 12722 c-3 -6 -15 -8 -25 -5 -10 3 -22 0 -25 -6 -4 -6 -1 -11 7
-11 23 0 56 -45 45 -64 -5 -9 -5 -16 0 -16 8 0 7 -63 -2 -87 -3 -7 -1 -13 4
-13 5 0 7 -6 5 -12 -3 -7 -7 -31 -9 -53 -2 -22 -5 -43 -5 -48 -1 -4 -13 -12
-27 -18 -37 -13 -28 -18 49 -23 67 -4 97 6 55 20 -12 3 -27 12 -33 18 -10 9
-12 106 -5 221 1 17 7 13 36 -20 20 -22 53 -66 75 -99 21 -32 39 -54 39 -50 0
5 9 -9 21 -31 41 -77 75 -98 76 -47 2 42 13 182 18 232 6 47 25 70 59 70 25 0
12 13 -17 17 -72 9 -137 10 -137 2 0 -5 7 -9 15 -9 8 0 24 -9 34 -19 17 -17
19 -30 15 -106 -6 -122 -12 -128 -60 -58 -21 32 -43 63 -49 69 -5 7 -30 39
-54 73 -39 54 -51 64 -77 60 -4 0 -10 5 -14 11 -5 8 -10 9 -14 2z"/>
<path d="M7634 12708 c-2 -3 9 -9 26 -13 17 -4 35 -16 41 -26 12 -22 20 -197
10 -204 -4 -2 -27 19 -52 47 -24 28 -55 63 -68 77 -12 14 -38 42 -56 62 -45
51 -60 57 -108 48 -23 -4 -45 -5 -49 -3 -5 3 -8 1 -8 -5 0 -6 11 -13 25 -17
45 -11 50 -23 56 -151 1 -29 6 -53 11 -53 5 0 6 -5 2 -12 -5 -7 -8 -27 -7 -44
0 -24 -5 -35 -23 -43 -13 -6 -24 -14 -24 -18 0 -8 87 -6 130 3 22 5 23 7 7 15
-9 6 -21 8 -26 5 -21 -13 -41 73 -43 179 -1 78 0 79 30 48 44 -49 138 -155
174 -198 38 -45 58 -54 59 -27 1 23 0 104 -3 177 -1 33 1 66 5 73 5 6 4 12 -2
12 -7 0 -7 8 1 25 6 14 14 25 18 25 3 0 14 6 24 13 15 11 6 13 -64 13 -45 -1
-84 -4 -86 -8z"/>
<path d="M7156 12669 c-66 -10 -77 -16 -56 -29 9 -6 16 -6 18 0 8 21 29 -19
36 -65 4 -28 9 -61 11 -75 2 -14 6 -47 10 -74 3 -27 8 -53 11 -57 3 -5 -4 -17
-15 -28 -11 -11 -16 -23 -11 -26 6 -4 10 -1 10 6 0 8 3 9 13 0 8 -6 16 -8 19
-5 5 5 53 14 86 16 26 2 10 18 -18 18 -17 0 -30 5 -31 13 0 6 -2 20 -4 29 -7
38 -17 147 -19 202 -1 56 1 60 24 66 22 5 23 7 7 13 -10 4 -22 6 -25 6 -4 -1
-34 -5 -66 -10z"/>
<path d="M8550 12660 c0 -5 -7 -7 -15 -4 -15 6 -69 -27 -97 -61 -25 -29 -44
-140 -26 -151 4 -3 8 -13 8 -23 0 -21 55 -84 88 -101 43 -21 117 -30 140 -16
7 4 12 4 12 0 0 -3 11 1 25 10 14 9 25 14 25 12 0 -3 13 7 29 22 16 15 28 29
28 32 0 3 5 18 11 33 21 50 8 167 -19 167 -5 0 -9 6 -9 13 0 15 -49 46 -100
64 -42 15 -100 17 -100 3z m110 -27 c26 -12 52 -39 59 -64 8 -26 8 -103 -1
-143 -10 -45 -65 -105 -98 -107 -41 -3 -45 -2 -73 9 -16 7 -34 9 -40 5 -7 -3
-9 -3 -5 1 4 5 -2 25 -13 45 -14 26 -19 52 -18 94 1 31 6 57 10 57 4 0 5 8 2
19 -2 10 3 25 11 34 9 8 16 20 16 25 0 16 63 42 95 39 17 -2 41 -8 55 -14z"/>
<path d="M6738 12587 c-28 -5 -48 -15 -48 -22 0 -8 8 -11 20 -8 25 7 26 -10 5
-61 -8 -20 -12 -36 -8 -36 5 0 3 -4 -2 -8 -6 -4 -16 -20 -24 -37 -12 -29 -13
-29 -27 -10 -8 10 -14 15 -14 11 0 -4 -16 8 -36 28 -20 20 -40 36 -45 36 -18
0 -8 39 12 45 11 4 18 9 16 12 -8 8 -117 -19 -117 -29 0 -5 -4 -7 -9 -3 -5 3
-12 1 -15 -4 -3 -5 7 -14 22 -20 48 -20 168 -143 175 -180 12 -59 8 -82 -13
-88 -11 -3 -20 -10 -20 -15 0 -5 10 -6 21 -3 12 4 29 9 38 10 9 2 17 4 19 5 1
2 5 3 10 5 51 14 62 18 62 26 0 5 -11 9 -25 9 -19 0 -26 7 -34 38 -16 55 -13
98 8 140 10 20 19 39 18 42 -1 14 46 92 58 96 17 7 27 31 12 30 -7 0 -33 -4
-59 -9z"/>
<path d="M8894 12592 c4 -6 14 -8 24 -5 9 3 14 3 10 -2 -4 -4 0 -22 9 -39 9
-17 17 -40 18 -51 1 -11 10 -56 19 -100 10 -44 19 -93 22 -110 13 -83 21 -91
52 -53 9 12 27 32 39 45 12 13 20 23 18 23 -3 0 3 9 13 19 44 49 54 71 32 71
-5 0 -10 -3 -10 -8 0 -4 -16 -25 -35 -47 -19 -22 -35 -43 -35 -47 0 -18 -25 5
-26 25 -1 12 -4 32 -7 43 -5 21 -9 39 -26 147 l-8 47 29 0 c39 0 27 16 -19 25
-21 5 -42 9 -48 11 -53 14 -77 16 -71 6z"/>
<path d="M9170 12518 c0 -6 3 -9 6 -5 7 6 34 -16 34 -28 0 -18 -33 -74 -41
-69 -10 6 -12 -19 -3 -29 8 -7 50 44 47 55 -2 5 4 8 12 8 8 0 20 8 26 19 8 12
19 16 32 13 13 -3 18 -1 13 6 -6 10 -63 28 -78 24 -5 -1 -8 2 -8 6 0 4 -9 8
-20 9 -11 1 -20 -3 -20 -9z"/>
<path d="M6230 12420 c0 -5 -6 -7 -14 -4 -7 3 -31 -2 -52 -11 -22 -9 -43 -18
-49 -19 -36 -8 -85 -29 -85 -37 0 -6 -4 -7 -10 -4 -5 3 -10 1 -10 -6 0 -6 8
-9 19 -6 25 6 40 -4 44 -31 2 -12 6 -25 10 -28 4 -4 7 -16 7 -26 0 -10 4 -18
10 -18 6 0 9 -3 8 -7 -1 -5 8 -41 22 -81 20 -60 22 -77 12 -92 -15 -25 -15
-29 1 -26 17 4 127 56 127 61 0 2 -12 3 -27 2 -23 -2 -31 4 -44 33 -9 19 -20
47 -23 61 -5 23 -2 28 20 33 23 6 84 -18 92 -36 2 -5 9 -8 16 -8 7 0 21 -9 31
-20 10 -11 24 -20 32 -20 7 0 13 -4 13 -9 0 -5 20 -1 44 7 27 10 40 19 33 24
-6 3 -14 5 -18 2 -4 -2 -10 0 -14 6 -3 5 -13 10 -20 10 -8 0 -44 20 -80 44
l-65 44 29 24 c55 47 54 116 -3 136 -39 15 -56 15 -56 2z m-5 -24 c35 -19 45
-33 45 -72 0 -36 -39 -81 -77 -90 -27 -7 -41 2 -46 31 -5 25 -16 55 -28 78 -6
11 -9 21 -6 23 3 3 77 42 83 44 1 0 14 -6 29 -14z"/>
<path d="M9496 12357 c-23 -24 -73 -78 -112 -120 -46 -50 -81 -78 -99 -81 -43
-8 -40 -13 17 -32 29 -9 53 -15 54 -13 0 2 8 -2 17 -10 13 -10 17 -10 17 -1 0
6 -9 14 -20 17 -28 7 -26 44 5 77 23 25 27 26 52 13 16 -8 39 -17 53 -21 42
-10 51 -21 56 -69 5 -48 4 -50 -38 -50 -10 0 -15 -4 -12 -8 3 -5 12 -9 20 -9
8 0 25 -7 38 -15 13 -9 37 -20 54 -25 29 -8 30 -7 19 11 -6 10 -14 19 -18 19
-3 0 -6 12 -6 28 -1 36 -12 156 -19 212 -3 25 -6 52 -6 60 -1 8 -6 21 -12 29
-8 11 -8 13 1 7 9 -5 11 -2 7 8 -10 25 -24 19 -68 -27z m23 -45 c-1 -9 2 -41
6 -69 3 -29 3 -53 0 -53 -3 0 -19 7 -35 15 -17 9 -30 13 -30 10 0 -3 -9 -1
-20 5 -29 15 -25 27 23 75 43 43 56 47 56 17z"/>
<path d="M9788 12259 c-20 -47 -10 -56 36 -30 33 19 76 24 76 10 0 -4 8 -10
19 -14 17 -5 15 -14 -30 -125 -59 -146 -76 -175 -95 -159 -7 6 -18 8 -24 4 -7
-4 8 -17 35 -32 26 -13 49 -22 52 -20 2 3 14 -4 25 -15 26 -26 33 -18 12 18
-16 29 -16 31 39 159 30 71 60 131 65 133 22 7 73 -52 76 -87 3 -48 23 -50 42
-6 8 21 14 39 12 40 -5 6 -262 136 -293 149 -30 13 -31 12 -47 -25z"/>
<path d="M5740 12220 c-63 -32 -122 -64 -130 -71 -8 -8 -16 -13 -17 -11 -2 1
-9 1 -15 1 -7 -1 5 -5 27 -8 43 -6 43 -6 97 -126 59 -133 60 -134 38 -153 -11
-9 -20 -21 -20 -27 0 -5 4 -4 9 3 4 8 11 13 15 12 3 0 65 27 136 62 104 51
130 67 130 84 0 11 -3 24 -7 28 -5 4 -9 12 -9 17 -1 5 -2 13 -3 19 -2 21 -27
-2 -29 -28 -2 -32 -21 -82 -31 -80 -3 1 -27 -9 -53 -20 -25 -12 -52 -20 -60
-17 -7 3 -24 33 -38 68 -13 34 -36 87 -51 117 -43 89 -43 94 -6 110 81 34 92
37 105 27 6 -5 12 -6 12 -3 0 4 7 0 16 -8 8 -9 20 -16 25 -16 15 0 10 37 -8
58 -18 19 -19 19 -133 -38z"/>
<path d="M5833 12136 c7 -17 -30 -79 -42 -72 -5 3 -14 -1 -21 -9 -10 -12 -10
-15 2 -15 8 0 19 5 24 10 19 19 51 19 65 -1 7 -10 19 -19 26 -19 9 0 6 17 -9
60 -13 35 -28 60 -36 60 -8 0 -12 -6 -9 -14z"/>
<path d="M5485 12080 c-4 -6 -11 -8 -16 -5 -5 4 -9 1 -9 -4 0 -6 -7 -11 -15
-11 -9 0 -18 -7 -21 -15 -4 -8 -10 -13 -14 -10 -4 3 -14 -3 -21 -12 -13 -15
-11 -16 11 -10 14 3 31 3 37 -1 14 -9 28 -262 15 -262 -5 0 -17 8 -28 18 -18
17 -98 75 -132 97 -32 20 -44 36 -38 50 8 23 -11 18 -59 -15 -54 -37 -66 -54
-31 -40 17 6 26 6 26 0 0 -6 6 -10 13 -10 6 0 36 -18 65 -40 29 -22 55 -40 58
-40 2 0 10 -5 17 -10 7 -6 30 -24 52 -40 22 -16 45 -34 52 -40 17 -14 33 -13
34 3 4 36 4 93 -1 102 -9 19 -8 35 1 41 5 3 6 11 2 17 -4 7 -8 56 -8 109 0 81
3 99 18 110 9 7 17 16 17 20 0 11 -18 10 -25 -2z"/>
<path d="M10226 12065 c4 -8 10 -15 14 -15 15 0 17 -39 3 -60 -8 -12 -16 -27
-17 -33 -1 -7 -8 -23 -16 -37 -7 -14 -27 -52 -44 -85 -26 -51 -35 -60 -58 -60
-35 1 -30 -4 42 -49 60 -37 86 -43 56 -13 -22 21 -13 52 49 169 42 80 59 103
74 102 11 0 22 5 25 13 3 7 1 13 -4 13 -5 0 -34 16 -64 35 -62 39 -68 41 -60
20z"/>
<path d="M7900 11883 c0 -4 -55 -8 -123 -9 -118 0 -254 -8 -367 -20 -30 -4
-65 -7 -77 -7 -13 -1 -23 -3 -23 -6 0 -4 -24 -7 -52 -9 -29 -2 -72 -7 -95 -13
-24 -5 -58 -12 -76 -14 -19 -3 -105 -24 -193 -46 -87 -22 -171 -43 -186 -46
-16 -3 -28 -10 -28 -15 0 -5 -4 -7 -9 -4 -15 10 -253 -76 -451 -161 -128 -56
-367 -181 -470 -248 -19 -12 -56 -35 -82 -51 -27 -16 -78 -50 -115 -76 -38
-26 -76 -53 -87 -60 -10 -7 -24 -18 -30 -23 -6 -6 -38 -31 -71 -55 -33 -25
-62 -47 -65 -50 -3 -3 -32 -28 -64 -55 -33 -28 -78 -68 -102 -90 -23 -22 -61
-58 -85 -81 -108 -101 -327 -344 -394 -438 -11 -15 -28 -37 -39 -49 -10 -12
-30 -40 -44 -62 -13 -22 -31 -47 -39 -55 -21 -22 -93 -138 -93 -149 0 -5 -4
-11 -8 -13 -11 -4 -92 -135 -92 -148 0 -5 -5 -10 -12 -10 -6 0 -9 -3 -5 -6 3
-3 -5 -24 -19 -46 -27 -43 -144 -278 -138 -278 1 0 -10 -26 -25 -57 -16 -32
-43 -96 -61 -143 -17 -47 -38 -102 -46 -122 -13 -36 -72 -227 -79 -258 -2 -8
-4 -15 -5 -15 -1 0 -3 -7 -5 -15 -17 -63 -27 -109 -31 -130 -3 -14 -7 -33 -10
-42 -3 -9 -6 -25 -8 -35 -27 -138 -39 -205 -42 -238 -3 -22 -7 -46 -9 -53 -7
-20 -18 -130 -19 -189 -1 -29 -3 -53 -6 -53 -3 0 -6 -19 -7 -42 -4 -88 -2
-504 1 -538 3 -19 5 -38 5 -42 1 -11 8079 -10 8085 1 5 7 17 208 17 266 0 77
-18 440 -21 440 -2 0 -7 42 -14 115 -4 30 -8 66 -11 80 -20 112 -26 147 -27
160 0 8 -12 62 -25 120 -14 58 -26 112 -28 120 -14 65 -60 216 -67 218 -4 2
-6 7 -3 12 15 24 -158 444 -267 649 -34 64 -70 133 -80 153 -11 20 -26 42 -34
49 -8 6 -14 15 -14 20 0 11 -70 122 -82 130 -6 3 -8 8 -7 10 6 9 -122 186
-257 355 -127 158 -413 438 -589 578 -33 26 -67 53 -75 59 -8 7 -31 23 -50 37
-19 13 -37 27 -40 30 -3 3 -12 10 -21 15 -9 6 -41 26 -70 46 -103 69 -200 130
-242 153 -23 13 -75 42 -114 64 -40 22 -73 37 -73 34 0 -4 -4 -2 -8 4 -9 13
-275 134 -296 134 -9 0 -16 5 -16 10 0 6 -7 10 -15 10 -8 0 -23 4 -33 9 -9 5
-28 13 -42 19 -29 13 -246 84 -305 100 -77 21 -90 25 -95 25 -3 0 -16 4 -30 9
-23 9 -68 19 -165 38 -202 39 -253 48 -316 55 -15 2 -51 6 -80 9 -96 10 -162
15 -278 21 -63 3 -118 8 -122 11 -5 3 -9 2 -9 -3z m330 -167 c25 -3 68 -8 95
-10 28 -3 50 -6 50 -7 0 0 14 -2 30 -4 29 -2 69 -9 126 -20 14 -3 39 -6 55 -9
16 -2 40 -6 54 -9 161 -38 246 -60 302 -76 36 -10 69 -17 72 -13 3 3 6 1 6 -5
0 -6 17 -14 38 -19 44 -9 40 -8 75 -22 16 -7 30 -12 32 -12 2 0 16 -5 32 -12
15 -6 30 -12 33 -13 3 -1 13 -5 22 -9 9 -4 22 -9 30 -10 30 -6 229 -96 339
-152 47 -24 90 -44 97 -44 7 0 12 -3 12 -8 0 -4 28 -22 63 -40 87 -46 161 -92
165 -103 2 -5 8 -9 13 -9 8 0 143 -87 174 -112 6 -5 35 -27 65 -51 30 -23 56
-45 58 -49 2 -5 10 -8 17 -8 7 0 15 -3 17 -7 2 -5 30 -30 63 -58 93 -77 119
-101 249 -230 101 -100 208 -215 244 -260 42 -54 128 -161 132 -165 3 -3 16
-22 30 -42 14 -21 28 -38 33 -38 4 0 7 -4 7 -9 0 -5 24 -45 54 -88 73 -106
167 -263 158 -263 -4 0 2 -7 12 -15 11 -8 17 -15 14 -15 -4 0 13 -36 38 -80
24 -44 44 -84 44 -90 0 -5 10 -28 23 -52 20 -37 75 -164 97 -223 4 -11 15 -37
24 -58 9 -21 16 -42 16 -48 0 -6 6 -25 14 -42 14 -31 36 -96 40 -120 1 -7 12
-43 24 -82 28 -94 76 -292 86 -360 2 -11 4 -20 5 -20 2 0 4 -16 6 -35 2 -19 6
-53 9 -75 3 -22 10 -66 14 -98 5 -31 7 -59 4 -61 -7 -8 -53 16 -129 65 -40 26
-80 50 -91 53 -10 4 -44 25 -75 49 -31 23 -82 60 -113 82 -55 39 -86 63 -164
133 -21 17 -40 32 -44 32 -14 0 -188 166 -247 235 -14 17 -43 65 -64 108 -21
42 -43 77 -47 77 -5 0 -7 4 -4 9 3 4 -8 29 -24 55 -17 26 -30 51 -30 57 0 6
-4 7 -10 4 -5 -3 -10 -1 -10 6 0 17 -31 38 -57 39 -24 0 -126 -96 -117 -111 3
-5 1 -9 -5 -9 -5 0 -12 -8 -16 -19 -3 -10 -19 -31 -35 -47 -16 -16 -30 -34
-30 -40 0 -25 -51 -22 -83 5 -43 34 -103 97 -152 157 -75 94 -273 279 -356
336 -46 31 -104 76 -129 100 -40 38 -211 243 -265 317 -11 15 -31 39 -45 54
-14 14 -30 32 -36 39 -6 7 -20 20 -30 29 -11 9 -26 26 -34 37 -8 12 -18 22
-22 22 -4 0 -23 16 -43 37 -19 20 -35 33 -35 28 0 -4 -6 -3 -12 1 -30 22 -123
-3 -133 -36 -3 -9 -18 -29 -33 -43 -15 -14 -47 -46 -72 -72 -25 -26 -57 -54
-72 -63 -16 -9 -28 -20 -28 -24 0 -5 -10 -13 -22 -18 -13 -6 -36 -19 -53 -30
-55 -36 -76 -45 -83 -33 -4 6 -38 25 -76 44 -78 37 -192 142 -215 197 -7 18
-17 32 -22 32 -5 0 -9 6 -9 13 0 7 -9 19 -20 27 -11 8 -20 19 -20 25 0 5 -14
26 -30 45 -16 19 -30 38 -30 42 0 4 -13 21 -30 38 -16 17 -30 37 -30 44 0 15
-40 106 -56 128 -6 7 -23 42 -39 78 -17 36 -34 68 -40 72 -5 4 -6 8 -1 8 5 0
4 6 -2 13 -6 6 -10 14 -9 17 4 15 -77 158 -98 173 -43 31 -150 22 -192 -18
-15 -14 -24 -25 -20 -25 4 0 3 -6 -3 -12 -6 -7 -31 -44 -56 -83 -25 -38 -49
-72 -53 -75 -3 -3 -20 -25 -36 -49 -17 -25 -39 -54 -50 -66 -11 -11 -40 -45
-65 -74 -25 -29 -54 -62 -65 -75 -11 -12 -39 -44 -62 -72 -23 -27 -52 -60 -64
-74 -12 -14 -33 -41 -48 -60 -14 -19 -29 -37 -32 -40 -18 -15 -101 -124 -111
-145 -6 -14 -14 -25 -18 -25 -13 0 -50 -80 -60 -129 -5 -28 -19 -64 -31 -80
-12 -16 -18 -34 -15 -40 4 -6 2 -11 -3 -11 -6 0 -11 -7 -11 -15 0 -28 -78
-160 -135 -231 -51 -62 -169 -180 -232 -230 -26 -22 -51 -43 -55 -49 -5 -7 -8
-7 -8 0 0 6 -6 3 -13 -5 -15 -19 -89 -69 -139 -95 -21 -11 -38 -23 -38 -27 0
-5 -3 -7 -7 -6 -5 1 -33 -11 -63 -25 -30 -15 -62 -27 -70 -27 -9 0 -20 -4 -25
-9 -6 -5 -44 -21 -85 -36 -82 -29 -207 -88 -255 -120 -54 -36 -145 -110 -145
-117 0 -5 -4 -8 -9 -8 -25 0 -163 -138 -223 -223 -12 -18 -25 -34 -28 -37 -3
-3 -16 -22 -29 -42 -12 -21 -26 -38 -29 -38 -21 0 -99 173 -126 281 -2 9 -9
33 -15 55 -5 21 -15 60 -22 86 -9 36 -18 50 -41 61 -27 13 -40 13 -123 -3 -30
-6 -47 5 -79 53 -19 28 -47 63 -61 77 -14 14 -34 33 -44 43 -10 10 -27 20 -37
21 -23 4 -74 -46 -75 -74 -2 -33 -4 -38 -11 -46 -5 -4 -8 -15 -8 -23 0 -9 -11
-33 -25 -54 -14 -20 -23 -42 -20 -47 3 -6 1 -10 -6 -10 -7 0 -9 -3 -6 -6 7 -7
-79 -176 -114 -226 -11 -14 -19 -30 -19 -35 0 -16 -186 -197 -235 -229 -16
-10 -32 -21 -35 -24 -3 -3 -30 -16 -60 -30 -30 -13 -59 -29 -65 -34 -11 -12
-67 -35 -104 -42 -13 -3 -32 -9 -42 -14 -10 -6 -22 -10 -28 -10 -10 0 -7 84 5
150 4 19 8 51 9 70 4 44 21 155 25 155 1 0 3 14 6 32 5 40 43 214 49 223 2 3
6 18 9 32 2 14 14 61 27 104 12 43 22 85 22 92 0 6 5 12 10 12 6 0 7 3 4 7 -4
3 -2 12 4 19 6 8 9 21 5 29 -3 8 -1 15 4 15 6 0 10 8 10 18 0 10 4 22 8 28 5
5 19 38 32 74 12 36 34 90 48 120 13 30 25 61 25 68 0 6 4 12 9 12 4 0 8 6 8
13 0 15 109 240 120 247 5 3 12 18 15 33 4 15 11 27 16 27 5 0 9 5 9 11 0 6 9
23 19 38 11 15 21 34 23 42 2 8 5 16 9 19 8 8 69 100 69 106 0 5 40 64 50 74
3 3 25 34 49 70 25 36 48 67 53 68 4 2 8 10 8 17 0 7 3 15 8 17 4 2 23 23 42
48 43 56 76 93 118 138 17 18 32 36 32 38 0 3 10 15 23 28 12 12 55 57 95 99
40 43 74 77 75 77 2 0 30 26 63 58 74 71 135 125 200 176 27 22 56 46 64 53
91 78 480 335 480 316 0 -4 7 2 15 13 8 10 15 16 15 12 0 -4 21 5 48 20 66 40
264 135 280 135 6 0 12 3 12 7 0 3 17 12 38 19 20 7 51 19 67 26 112 48 443
154 535 171 14 3 31 7 39 10 8 2 30 7 50 10 20 3 43 7 51 10 8 3 26 8 40 10
14 2 41 7 60 10 40 8 43 8 125 18 33 4 71 9 85 11 14 2 61 6 104 10 44 3 82 7
84 10 6 6 587 -2 642 -9z m-247 -1296 c9 -11 15 -20 12 -20 -11 0 74 -142 107
-180 7 -8 27 -36 43 -62 17 -27 33 -48 38 -48 4 0 7 -5 7 -11 0 -6 44 -54 98
-107 74 -73 116 -106 170 -132 39 -19 72 -38 72 -42 0 -5 8 -8 18 -8 10 0 28
-9 41 -21 18 -17 20 -23 9 -36 -14 -17 -52 -34 -88 -40 -14 -2 -68 -18 -120
-35 -52 -17 -107 -32 -123 -34 -38 -5 -106 -38 -141 -68 -16 -15 -33 -26 -38
-26 -4 0 -8 -7 -8 -15 0 -8 -4 -15 -10 -15 -5 0 -10 -4 -10 -10 0 -5 -8 -18
-17 -28 -10 -11 -49 -54 -88 -97 -38 -42 -74 -81 -80 -86 -90 -81 -130 -97
-177 -73 -18 9 -35 30 -44 52 -8 20 -19 44 -24 52 -21 32 -38 75 -32 84 3 5 6
31 6 57 2 72 49 122 151 163 90 35 112 60 92 105 -7 14 -17 31 -23 36 -11 10
-20 42 -44 152 -11 50 -12 107 -1 128 3 5 6 25 8 45 5 48 21 95 57 165 17 33
31 63 31 67 0 3 9 15 21 25 11 10 27 33 35 51 16 37 28 40 52 12z m1393 -657
c19 -20 34 -42 34 -48 0 -6 8 -20 18 -31 9 -10 28 -39 41 -64 14 -25 32 -50
41 -57 9 -6 25 -30 35 -52 10 -23 22 -41 27 -41 5 0 7 -4 4 -9 -4 -5 -3 -11 2
-13 4 -1 18 -20 31 -40 12 -21 27 -38 32 -38 5 0 9 -4 9 -10 0 -25 94 -116
129 -125 14 -3 43 -19 63 -36 20 -16 41 -29 47 -29 12 0 105 -72 155 -122 22
-21 44 -38 49 -38 4 0 5 -4 2 -10 -3 -5 2 -10 11 -10 10 0 15 -2 12 -5 -3 -3
14 -25 36 -49 53 -56 90 -101 85 -102 -2 0 12 -20 31 -43 19 -24 49 -62 67
-85 67 -85 173 -176 173 -148 0 5 10 8 21 8 12 -1 26 8 33 19 6 11 14 22 18
25 10 8 39 92 34 98 -6 5 22 61 39 78 15 15 70 -8 130 -54 22 -17 60 -46 84
-64 24 -18 67 -52 96 -75 30 -24 57 -43 61 -43 3 0 23 -15 44 -32 20 -18 61
-53 90 -78 29 -25 63 -54 74 -66 32 -31 123 -104 131 -104 3 0 20 -13 37 -30
16 -16 33 -30 37 -30 5 0 24 -13 42 -30 41 -35 180 -106 228 -116 19 -3 40
-12 46 -18 13 -13 18 -354 6 -374 -6 -10 -132 -13 -592 -12 -564 0 -585 1
-610 19 -15 11 -39 23 -53 27 -14 3 -26 10 -26 15 0 5 -6 9 -13 9 -7 0 -23 9
-35 20 -12 11 -27 20 -33 20 -7 0 -28 12 -48 28 -20 15 -52 35 -71 45 -19 10
-40 25 -45 32 -6 7 -29 22 -51 34 -21 11 -46 30 -54 41 -8 11 -19 20 -25 20
-6 0 -26 13 -45 30 -19 16 -40 29 -47 30 -6 0 -15 9 -18 21 -4 11 -9 18 -11
16 -3 -2 -20 11 -40 29 -19 19 -38 34 -43 34 -5 0 -48 39 -97 86 -88 85 -110
102 -129 99 -24 -4 -45 -18 -45 -31 0 -8 -3 -14 -7 -14 -5 0 -42 -34 -83 -75
-41 -41 -79 -75 -84 -75 -5 0 -22 -13 -37 -30 -16 -16 -29 -28 -29 -25 0 2
-26 -9 -57 -26 -35 -18 -80 -32 -113 -35 -70 -7 -65 -7 -130 0 -92 10 -95 11
-100 17 -3 3 -31 16 -63 28 -32 12 -75 32 -95 46 -20 14 -42 25 -49 25 -7 0
-13 5 -13 10 0 6 -3 9 -7 8 -5 -1 -21 5 -38 15 -16 9 -25 16 -20 17 6 0 4 4
-3 9 -9 5 5 13 41 25 30 10 63 26 72 36 9 10 43 26 76 36 63 19 92 47 83 82
-7 26 -40 39 -89 35 -47 -4 -225 -43 -240 -51 -5 -4 -18 -5 -27 -4 -10 2 -18
-1 -18 -7 0 -6 -6 -8 -14 -5 -7 3 -40 -2 -72 -10 -58 -15 -58 -15 -118 14 -34
16 -68 34 -76 39 -27 18 -83 41 -97 41 -7 0 -13 4 -13 8 0 10 -14 17 -165 87
-55 26 -117 55 -138 66 -22 10 -43 16 -48 13 -5 -3 -9 -1 -9 5 0 5 -15 13 -32
16 -18 4 -35 10 -38 14 -11 13 -102 51 -124 51 -12 0 -26 3 -30 7 -3 4 -15 8
-25 10 -10 1 -39 12 -65 23 -26 11 -53 17 -58 13 -6 -3 -8 -1 -5 4 8 13 -57
21 -180 23 -98 1 -139 -12 -176 -54 -10 -12 -22 -21 -25 -21 -4 -1 -29 -6 -57
-13 -48 -12 -109 -12 -130 -1 -20 11 -94 10 -114 -1 -12 -6 -21 -17 -21 -25 0
-8 -8 -20 -18 -27 -9 -7 -30 -31 -47 -53 -40 -54 -120 -131 -175 -168 -25 -17
-47 -34 -50 -37 -3 -4 -18 -10 -34 -14 -17 -4 -46 -14 -65 -23 -20 -9 -40 -15
-45 -14 -4 1 -14 -4 -22 -10 -8 -6 -14 -8 -14 -3 0 4 -5 3 -12 -4 -7 -7 -22
-12 -33 -12 -12 0 -25 -3 -29 -7 -3 -4 -14 -7 -24 -8 -9 -1 -39 -5 -67 -9 -27
-4 -68 -9 -90 -11 -103 -10 -192 -43 -240 -91 -13 -13 -28 -24 -32 -24 -5 0
-15 -10 -23 -22 -8 -11 -27 -35 -41 -52 -14 -17 -31 -41 -38 -53 -6 -13 -18
-23 -26 -23 -15 0 -75 51 -75 63 0 3 -10 17 -22 31 -13 13 -32 41 -43 63 -11
21 -22 40 -26 43 -24 20 -30 110 -7 110 5 0 6 5 3 10 -3 6 1 13 9 16 9 3 16
10 16 15 0 22 247 285 319 339 49 38 94 61 109 55 6 -2 12 0 12 4 0 12 106
-22 152 -47 19 -11 46 -26 59 -34 13 -7 26 -15 29 -18 3 -3 23 -17 45 -32 22
-15 52 -38 66 -51 35 -34 63 -47 96 -47 43 0 50 22 46 149 -3 104 -2 116 17
133 11 10 20 15 20 11 0 -9 107 103 180 188 25 28 59 66 75 82 16 17 30 34 30
38 0 7 62 83 113 137 12 14 22 28 22 32 0 14 133 140 147 140 7 0 16 7 19 15
4 8 10 12 15 9 5 -3 9 0 9 7 0 7 3 10 6 7 3 -4 19 -2 35 2 20 6 29 5 30 -3 0
-8 2 -8 6 1 2 6 8 10 12 8 4 -3 20 -7 36 -10 38 -7 155 -58 155 -68 0 -5 -3
-7 -7 -6 -13 3 -86 -31 -105 -49 -10 -9 -18 -12 -18 -8 0 4 -8 1 -18 -8 -9 -8
-30 -20 -45 -26 -17 -7 -25 -15 -21 -23 4 -6 3 -8 -3 -5 -9 6 -121 -98 -190
-175 -28 -31 -47 -78 -32 -78 6 0 8 -4 4 -9 -5 -9 32 -27 47 -23 3 1 21 4 39
7 17 3 44 14 58 23 22 15 82 43 156 73 62 24 116 34 172 30 29 -1 54 -49 47
-87 -10 -53 4 -91 34 -97 23 -4 96 23 112 42 3 3 14 8 25 9 11 2 38 10 60 18
22 8 50 17 62 20 12 2 34 8 47 14 34 13 164 3 190 -14 53 -35 96 -90 96 -124
0 -10 9 -37 20 -61 18 -35 24 -41 43 -35 25 8 34 17 67 64 22 32 129 141 196
200 144 126 336 160 494 87 25 -11 48 -20 53 -19 4 1 7 -1 7 -6 0 -4 12 -13
28 -19 37 -17 105 -83 177 -172 33 -41 68 -84 79 -95 42 -47 116 -148 116
-159 0 -6 -18 -27 -40 -47 -44 -40 -55 -69 -37 -95 27 -36 98 -23 212 40 74
41 82 42 115 13 79 -70 127 -79 181 -33 29 24 59 24 59 0 0 -6 11 -25 24 -40
14 -16 23 -32 20 -37 -3 -4 0 -8 7 -8 7 0 9 -3 6 -6 -4 -4 7 -22 23 -41 17
-18 30 -37 30 -42 0 -4 11 -14 25 -21 14 -7 25 -17 25 -22 0 -9 37 -48 46 -48
3 0 19 -13 34 -30 15 -16 32 -30 37 -30 4 0 22 -14 40 -30 18 -17 35 -30 38
-30 4 0 26 -13 50 -30 24 -16 48 -30 54 -30 6 0 11 -4 11 -9 0 -5 15 -13 33
-16 17 -4 37 -11 42 -15 32 -25 89 -49 138 -60 32 -6 63 -17 69 -24 7 -7 33
-17 58 -24 50 -13 74 -18 175 -36 11 -2 27 -6 35 -9 8 -4 29 -8 45 -11 17 -2
30 -5 30 -6 0 -7 158 -21 250 -22 181 -2 265 16 265 59 0 34 -15 39 -255 76
-16 3 -43 10 -58 16 -16 6 -33 9 -38 5 -5 -3 -9 -1 -9 5 0 5 -15 13 -32 16
-43 9 -115 33 -153 50 -65 29 -111 47 -129 50 -10 3 -30 12 -45 22 -14 10 -28
18 -31 18 -3 0 -15 6 -27 13 -13 7 -23 9 -23 5 -1 -4 -8 1 -18 12 -9 11 -35
29 -56 40 -22 11 -56 36 -77 56 -21 20 -42 38 -47 40 -5 2 -35 42 -67 89 -32
47 -68 95 -81 107 -13 12 -24 25 -24 29 0 6 -21 32 -72 90 -75 87 -150 130
-208 119 -19 -3 -49 -7 -66 -9 -17 -1 -35 -6 -41 -9 -6 -4 -28 7 -49 23 -21
16 -45 30 -52 30 -14 0 -65 33 -90 57 -7 7 -16 13 -20 14 -4 0 -16 3 -27 5
-56 14 -120 -4 -131 -38 -3 -10 -11 -18 -19 -18 -7 0 -20 -6 -28 -14 -12 -12
-23 -7 -78 35 -62 48 -179 166 -179 181 0 5 -8 16 -17 26 -22 23 -49 65 -71
112 -12 27 -16 65 -15 175 0 77 3 154 6 172 13 69 65 169 117 226 65 69 88 73
136 20z m-4508 -1253 c9 -9 30 -22 45 -30 27 -14 52 -57 61 -105 2 -12 11 -36
20 -51 9 -16 20 -36 25 -44 4 -8 21 -40 36 -70 16 -30 35 -68 44 -85 21 -38
109 -172 127 -194 8 -9 14 -20 14 -24 -1 -4 5 -14 12 -21 7 -8 24 -28 38 -46
14 -18 30 -37 35 -44 6 -7 15 -19 20 -27 6 -9 23 -35 39 -58 16 -23 26 -44 23
-47 -4 -4 -968 -7 -1404 -4 l-43 0 0 131 c0 112 2 130 15 125 8 -3 15 -1 15 4
0 6 5 10 11 10 15 0 83 32 90 43 3 5 10 9 15 9 29 1 185 90 228 130 11 10 23
18 27 18 4 0 20 12 36 28 15 15 41 36 57 47 16 11 49 39 73 63 24 23 47 42 50
42 3 0 46 41 95 90 48 50 85 90 82 90 -4 0 10 13 30 30 40 31 38 31 84 -10z
m2477 -19 c45 -8 93 -19 120 -25 6 -2 28 -11 50 -21 22 -9 45 -18 50 -20 16
-3 47 -16 100 -40 28 -12 53 -22 56 -21 3 0 13 -5 22 -13 10 -7 17 -10 17 -5
0 5 4 4 8 -1 4 -6 39 -26 77 -44 88 -41 134 -64 160 -79 11 -6 38 -20 60 -30
59 -28 135 -70 284 -161 74 -44 138 -81 143 -81 4 0 8 -4 8 -9 0 -5 8 -11 18
-14 18 -6 73 -38 82 -48 3 -3 31 -20 62 -38 32 -18 60 -37 63 -42 4 -5 11 -7
16 -4 5 4 9 3 9 -2 0 -4 18 -19 40 -33 37 -22 51 -40 31 -40 -4 0 -22 -13 -39
-30 l-32 -30 -607 0 c-1976 -1 -2136 0 -2147 14 -6 7 -26 23 -44 36 -19 12
-44 32 -56 44 -12 11 -35 31 -51 43 l-30 21 22 16 c12 9 29 23 38 32 8 8 15
12 15 7 1 -4 8 1 18 12 9 11 39 31 65 45 26 14 56 32 65 40 9 9 32 22 50 29
18 8 40 23 50 35 23 29 68 32 82 6 6 -10 25 -26 44 -35 31 -15 37 -15 71 -1
20 9 46 27 57 41 11 14 24 25 29 25 8 0 99 64 139 98 57 47 119 90 124 85 3
-4 6 -1 6 5 0 6 9 16 21 22 20 11 20 10 13 -50 -4 -33 -7 -71 -8 -83 0 -12 -8
-29 -16 -37 -12 -12 -16 -37 -14 -107 2 -113 16 -153 53 -153 48 1 63 23 68
97 5 82 8 102 18 128 73 179 97 220 180 300 69 67 117 101 150 107 11 2 25 8
32 14 13 12 74 10 158 -5z m2636 -680 c24 -11 58 -22 74 -25 59 -11 228 -106
214 -121 -5 -4 -247 -7 -458 -6 l-84 1 25 20 c14 10 31 39 37 63 22 76 106
106 192 68z m-417 -15 c26 10 66 -17 110 -75 l46 -60 -32 -3 c-18 -2 -81 -2
-141 0 l-107 3 6 37 c3 20 6 45 8 54 1 10 6 21 10 25 14 15 71 31 80 23 5 -5
14 -6 20 -4z m-421 -133 c-7 -2 -21 -2 -30 0 -10 3 -4 5 12 5 17 0 24 -2 18
-5z"/>
<path d="M10494 11848 c-3 -4 -10 -6 -15 -2 -12 7 -92 -74 -84 -86 3 -4 0 -10
-5 -12 -30 -10 -13 -149 22 -180 12 -10 17 -18 13 -18 -5 0 2 -11 15 -25 12
-13 27 -22 31 -19 14 8 11 24 -4 24 -20 0 -46 58 -49 105 -2 37 28 102 66 139
50 51 71 58 122 40 32 -11 108 -74 88 -74 -3 0 -2 -6 3 -12 30 -42 -20 -174
-83 -214 -29 -19 -105 -25 -116 -10 -4 6 -10 7 -15 2 -10 -10 21 -28 75 -42
25 -7 44 -8 48 -3 3 5 11 9 17 8 27 -3 38 3 76 41 31 32 41 51 48 93 5 28 7
57 4 62 -3 6 -6 16 -7 22 -3 15 -36 69 -62 99 -39 46 -171 90 -188 62z"/>
<path d="M5021 11773 c-6 -10 -11 -14 -11 -10 0 4 -15 -6 -32 -23 -18 -17 -45
-38 -60 -46 -16 -8 -28 -19 -28 -25 0 -10 52 23 80 51 18 18 45 21 77 9 36
-13 44 -3 25 31 -19 34 -36 38 -51 13z"/>
<path d="M4866 11655 c-3 -8 -13 -15 -21 -15 -9 0 -14 -4 -11 -9 3 -4 -6 -13
-19 -19 -14 -7 -25 -16 -25 -22 0 -13 6 -13 32 1 17 9 25 6 49 -21 16 -17 29
-34 29 -36 0 -3 11 -20 25 -38 14 -18 25 -38 25 -44 0 -7 4 -12 8 -12 5 0 18
-17 30 -38 19 -35 20 -41 7 -58 -20 -26 -19 -37 3 -19 9 8 46 37 82 65 175
137 171 132 135 186 -21 33 -29 25 -28 -29 1 -38 -4 -46 -47 -87 -56 -53 -86
-60 -102 -24 -6 13 -15 24 -20 24 -4 0 -8 5 -8 12 0 6 -8 20 -17 30 -17 19
-16 21 16 48 26 23 37 27 56 20 12 -5 26 -6 29 -3 3 4 6 1 6 -5 0 -7 4 -12 10
-12 12 0 3 25 -30 77 -16 24 -31 39 -38 34 -7 -4 -8 -12 -2 -21 11 -17 -4 -47
-38 -77 -14 -13 -26 -23 -28 -23 -2 0 -21 27 -44 59 -46 68 -56 77 -64 56z"/>
<path d="M10915 11567 c17 -27 13 -62 -11 -88 -10 -11 -14 -19 -10 -19 4 0 -2
-10 -13 -22 -12 -12 -33 -40 -48 -62 -40 -58 -61 -70 -95 -54 -31 15 -19 -6
24 -42 22 -19 49 -43 59 -52 23 -22 26 -2 5 27 -7 10 -11 28 -8 39 5 20 54 97
79 124 7 7 19 23 28 34 8 12 17 19 20 16 4 -3 8 -88 10 -189 5 -243 2 -241
135 -69 60 79 88 102 109 91 38 -21 28 2 -25 56 -55 55 -79 65 -50 21 14 -22
19 -91 5 -82 -3 2 -12 -8 -19 -21 -7 -13 -17 -22 -22 -19 -4 3 -8 0 -8 -6 0
-6 -6 -17 -12 -25 -7 -7 -21 -23 -31 -35 -10 -12 -20 -20 -22 -18 -2 2 -6 78
-9 170 -3 102 -9 173 -16 185 -11 17 -73 63 -85 63 -3 0 1 -10 10 -23z"/>
<path d="M4490 11305 c0 -8 -12 -21 -28 -29 -36 -19 -102 -79 -102 -94 0 -7
-4 -12 -9 -12 -7 0 -19 -29 -25 -60 -1 -3 -4 -9 -8 -15 -9 -15 -3 -96 10 -126
6 -15 21 -38 34 -52 33 -36 122 -57 144 -34 4 4 15 7 24 7 9 0 26 8 38 18 12
9 32 26 45 37 14 11 23 23 20 28 -2 4 3 10 11 13 9 3 13 10 10 15 -3 5 -1 9 4
9 5 0 17 15 27 33 17 33 17 35 -1 65 -10 18 -22 32 -26 32 -12 0 -9 45 4 58 6
6 9 14 7 17 -3 2 -34 -25 -70 -61 -59 -60 -61 -64 -30 -51 37 16 42 14 73 -32
15 -22 16 -27 2 -54 -18 -33 -64 -80 -85 -86 -14 -4 -49 -5 -84 -2 -23 1 -74
44 -97 82 -23 36 -38 98 -27 105 5 3 7 9 4 14 -8 14 19 61 50 89 38 32 74 40
110 25 37 -16 55 -17 55 -3 0 6 -6 16 -12 24 -7 7 -21 22 -30 34 -21 24 -38
27 -38 6z"/>
<path d="M11428 10962 c-16 -2 -28 -7 -28 -11 0 -5 -9 -11 -20 -14 -18 -5 -60
-63 -68 -97 -17 -65 10 -165 60 -221 41 -48 148 -86 148 -54 0 7 -10 12 -22
11 -13 -1 -32 3 -43 9 -39 20 -65 40 -65 48 0 5 -7 15 -15 24 -8 8 -13 19 -10
24 4 5 1 9 -5 9 -6 0 -10 10 -9 23 2 12 0 28 -4 35 -5 6 -4 12 0 12 5 0 10 12
11 27 1 15 5 29 10 32 4 3 12 15 18 26 15 28 85 74 106 70 10 -2 18 1 18 6 0
17 81 -34 103 -65 23 -33 26 -89 7 -136 -16 -39 -9 -58 12 -36 9 9 21 16 27
16 6 0 11 6 11 14 0 8 7 17 16 20 15 6 15 9 -2 29 -11 12 -28 40 -39 62 -20
41 -78 105 -95 105 -6 0 -10 4 -10 9 0 5 -15 13 -32 17 -43 10 -48 10 -80 6z"/>
<path d="M4155 10930 c3 -5 0 -10 -7 -10 -8 0 -21 -12 -30 -27 -9 -16 -26 -38
-37 -50 -12 -13 -17 -25 -11 -28 6 -3 10 -2 10 3 0 18 51 23 75 8 30 -20 127
-118 121 -123 -2 -3 -56 -7 -119 -9 -62 -3 -123 -7 -133 -9 -10 -2 -29 -4 -41
-4 -15 -1 -33 -16 -53 -43 -16 -24 -34 -49 -40 -55 -15 -17 0 -16 38 3 29 14
33 14 56 -3 14 -10 26 -21 26 -25 0 -5 7 -8 16 -8 8 0 13 -4 10 -8 -3 -5 14
-20 37 -35 22 -15 37 -27 33 -27 -5 0 2 -8 14 -18 16 -13 23 -29 22 -51 l-1
-32 31 38 c37 47 51 73 44 81 -3 3 -6 1 -6 -5 0 -6 -11 -14 -25 -17 -25 -6
-39 1 -73 37 -9 9 -22 17 -30 17 -7 0 -10 5 -7 10 3 6 1 10 -4 10 -13 0 -73
61 -66 68 2 3 22 6 43 8 83 6 229 16 267 17 28 1 40 7 40 17 1 18 -58 80 -76
80 -7 0 -10 3 -6 6 3 3 -11 22 -31 41 -68 66 -93 103 -82 123 13 24 13 30 -1
30 -5 0 -7 -4 -4 -10z"/>
<path d="M11673 10543 c-28 -18 -48 -41 -59 -68 -17 -40 -26 -122 -15 -140 3
-5 7 -19 8 -29 7 -44 63 -116 120 -154 33 -24 133 -32 133 -11 0 5 5 7 10 4 6
-3 10 -1 10 4 0 6 5 11 11 11 7 0 18 8 26 18 49 62 52 155 8 245 -28 56 -98
127 -132 134 -69 14 -79 13 -120 -14z m183 -55 c35 -24 66 -80 69 -126 2 -29
-22 -100 -39 -117 -27 -26 -78 -57 -103 -61 -15 -3 -30 -7 -35 -10 -4 -3 -8 0
-8 5 0 6 -7 11 -15 11 -22 0 -62 38 -75 71 -7 16 -16 29 -19 29 -4 0 -6 14 -5
31 4 52 14 99 23 99 4 0 13 11 19 25 6 14 18 25 27 25 8 0 15 4 15 8 0 14 42
31 79 31 21 1 48 -8 67 -21z"/>
<path d="M3805 10440 c-3 -11 -11 -20 -16 -20 -5 0 -9 -7 -9 -15 0 -8 -3 -15
-7 -15 -11 0 -42 -57 -35 -64 3 -3 12 -6 21 -6 9 0 56 -31 105 -70 49 -38 93
-70 97 -70 12 0 19 -44 9 -54 -6 -6 -10 -16 -10 -24 0 -11 2 -11 13 0 14 17
35 47 44 68 4 8 9 17 13 20 10 8 39 70 32 70 -3 0 -15 -9 -27 -20 -21 -19 -22
-20 -43 -3 -12 10 -58 45 -101 78 -44 33 -83 68 -86 78 -4 10 1 29 9 42 9 14
12 25 7 25 -5 0 -13 -9 -16 -20z"/>
<path d="M3717 10299 c-4 -16 -3 -18 9 -8 16 13 19 29 5 29 -5 0 -11 -9 -14
-21z"/>
<path d="M3606 10107 c-37 -74 -47 -106 -22 -71 27 36 42 -1 53 -133 5 -63 3
-73 -11 -73 -9 0 -16 3 -16 8 0 4 -19 16 -41 27 -39 18 -41 21 -36 58 5 34 4
37 -9 20 -7 -10 -14 -23 -14 -30 0 -6 -3 -13 -7 -15 -13 -5 -52 -108 -42 -108
5 0 9 4 9 9 0 16 30 21 55 9 14 -6 25 -15 25 -20 0 -4 5 -8 12 -8 6 0 44 -21
85 -46 69 -43 73 -47 73 -82 l0 -37 34 65 c35 67 37 83 8 78 -10 -1 -33 7 -53
20 -20 12 -41 22 -48 22 -8 0 -8 6 1 20 7 11 17 20 23 20 6 0 26 8 45 18 19
10 57 25 83 32 46 12 82 44 71 62 -3 4 -1 8 4 8 6 0 15 14 21 31 l11 32 -26
-26 c-14 -14 -47 -34 -72 -43 -26 -10 -71 -28 -101 -41 -29 -13 -59 -22 -65
-19 -7 3 -6 5 2 5 7 1 10 6 7 12 -4 6 -9 34 -11 62 -11 133 -12 173 -3 184 6
6 6 14 1 17 -5 3 -25 -27 -46 -67z"/>
<path d="M12088 10097 c3 -31 -1 -35 -97 -102 -55 -38 -102 -77 -104 -85 -7
-28 2 -112 14 -127 6 -7 9 -13 5 -13 -8 0 24 -59 51 -93 30 -38 79 -57 115
-45 15 6 28 13 28 17 0 3 15 12 33 20 17 8 34 17 37 20 3 3 20 14 39 24 36 19
48 15 83 -28 12 -14 16 -15 14 -5 -3 19 -74 170 -79 170 -3 0 -2 -18 0 -40 5
-37 2 -41 -42 -72 -90 -64 -138 -86 -165 -76 -32 12 -70 47 -70 65 0 8 -6 16
-14 19 -8 3 -12 12 -10 19 3 7 1 22 -4 32 -12 23 14 93 34 93 8 0 17 7 20 15
4 8 12 15 20 15 8 0 14 3 14 8 0 4 8 12 19 17 10 6 37 20 59 32 37 21 42 21
57 7 29 -29 26 -9 -9 61 -42 83 -53 95 -48 52z"/>
<path d="M3781 9781 c-10 -6 -10 -10 -1 -16 13 -8 24 -1 19 14 -3 6 -10 7 -18
2z"/>
<path d="M12346 9536 c3 -19 0 -44 -6 -55 -10 -21 -182 -111 -210 -111 -8 0
-21 9 -28 20 -7 11 -17 20 -23 20 -8 0 -8 -4 -1 -12 6 -7 11 -17 12 -23 1 -5
6 -20 11 -33 5 -13 12 -34 15 -47 3 -14 11 -25 16 -25 6 0 7 -7 4 -16 -3 -8
-2 -12 4 -9 5 3 7 19 5 36 -5 40 11 55 101 102 83 43 93 45 91 17 -1 -11 -5
-20 -9 -20 -4 0 -7 -3 -6 -7 1 -5 -9 -39 -22 -78 -13 -38 -25 -72 -25 -75 -1
-3 -5 -14 -10 -25 -42 -104 -55 -142 -55 -162 0 -21 3 -22 20 -13 11 6 20 8
20 5 0 -3 22 6 50 20 27 14 53 26 57 27 28 5 43 11 43 17 0 4 6 8 13 9 21 2
42 7 53 14 13 8 58 -35 47 -45 -3 -4 -1 -7 5 -7 7 0 11 11 10 25 -1 14 -5 25
-8 25 -3 0 -7 10 -7 22 -2 23 -5 31 -37 98 l-16 35 5 -31 c10 -56 -3 -81 -51
-101 -24 -10 -44 -21 -44 -25 0 -4 -10 -5 -21 -3 -12 3 -19 2 -15 -2 3 -3 -4
-11 -17 -18 -25 -13 -40 0 -27 24 10 17 59 157 65 181 2 8 4 16 5 18 2 1 3 5
4 10 1 4 7 17 14 29 7 12 13 33 14 47 1 15 6 26 9 26 9 0 -9 71 -22 86 -5 6
-6 14 -2 17 3 4 1 7 -6 7 -7 0 -10 3 -8 8 3 4 -1 13 -9 20 -12 11 -13 7 -8
-22z"/>
<path d="M3664 9515 c-6 -14 -55 -33 -84 -33 -18 0 -114 -9 -190 -18 -30 -4
-60 -7 -67 -7 -29 -1 -21 -34 23 -101 26 -39 51 -73 56 -74 4 -2 6 -7 3 -12
-3 -4 6 -19 20 -31 13 -13 25 -29 25 -35 0 -5 9 -20 20 -32 11 -12 22 -39 24
-62 5 -59 12 -58 31 2 10 29 24 66 32 82 14 26 14 28 -2 22 -9 -3 -19 -6 -21
-6 -3 0 -3 -3 -1 -7 3 -5 -1 -13 -8 -20 -10 -9 -17 -7 -31 7 -39 39 -43 47
-31 59 6 6 8 11 4 11 -4 0 -1 16 7 35 8 19 12 35 8 35 -3 0 -1 5 6 12 7 7 12
20 12 30 0 10 5 18 11 18 5 0 7 5 4 10 -4 6 6 11 22 11 15 1 38 3 51 4 21 2
22 -1 18 -34 -5 -33 -5 -34 9 -17 8 10 22 42 31 70 9 28 20 53 23 56 7 6 11
40 5 40 -3 0 -7 -7 -10 -15z m-176 -132 c-1 -12 -6 -23 -10 -23 -4 0 -8 -8 -8
-18 0 -22 -22 -72 -32 -72 -7 0 -48 54 -48 64 0 4 -9 16 -20 28 -11 12 -18 23
-16 25 2 2 25 6 52 10 27 3 50 6 52 8 1 1 9 2 17 2 9 0 14 -9 13 -24z"/>
<path d="M3164 9028 c-4 -13 -9 -27 -10 -33 -2 -5 -7 -25 -13 -43 -8 -28 -7
-36 10 -53 10 -10 19 -22 19 -26 0 -4 9 -16 19 -28 60 -64 79 -85 75 -85 -5 0
6 -14 34 -45 14 -15 7 -39 -8 -30 -5 3 -11 1 -15 -5 -4 -6 -11 -8 -16 -5 -5 4
-15 3 -21 -2 -7 -4 -15 -8 -18 -9 -67 -13 -170 -48 -171 -58 -4 -35 -9 -56
-22 -103 -12 -46 -12 -53 0 -53 8 0 12 4 9 8 -8 13 9 32 31 36 11 3 54 -5 94
-16 41 -10 80 -21 87 -22 20 -4 71 -49 66 -58 -3 -4 0 -8 5 -8 6 0 12 3 12 8
1 4 3 18 4 32 2 14 8 44 13 68 6 24 6 42 1 42 -5 0 -9 -7 -9 -15 0 -29 -56
-50 -90 -34 -3 1 -9 3 -15 4 -5 2 -12 4 -15 5 -5 2 -29 8 -52 13 -7 1 -17 5
-23 8 -5 4 -23 9 -38 13 -15 4 -25 11 -22 16 5 8 105 41 135 44 9 1 20 4 25 8
11 6 54 17 95 25 14 2 29 8 34 13 10 10 -19 60 -34 60 -6 0 -10 4 -10 10 0 5
-16 27 -35 47 -19 20 -35 41 -35 45 0 4 -7 8 -16 8 -8 0 -13 4 -10 9 3 5 -10
28 -29 52 -19 24 -33 44 -32 46 4 3 96 -24 122 -36 11 -5 42 -17 68 -28 47
-18 48 -19 45 -55 -2 -21 -1 -38 3 -38 8 0 45 128 43 148 -1 6 3 12 9 12 6 0
7 3 4 7 -4 3 -2 12 5 20 6 7 8 16 6 19 -3 3 -16 -9 -28 -25 -25 -36 -27 -37
-83 -12 -23 10 -67 28 -98 40 -73 29 -100 48 -93 66 4 8 4 15 1 15 -3 0 -9
-10 -13 -22z"/>
<path d="M12518 8934 c-30 -16 -28 -44 3 -44 10 0 19 -4 19 -10 0 -5 6 -10 14
-10 8 0 16 -7 20 -15 11 -29 24 -15 16 18 -22 86 -23 86 -72 61z"/>
<path d="M12592 8808 c3 -13 7 -29 9 -37 3 -11 -24 -24 -96 -48 -55 -18 -112
-37 -126 -41 -28 -10 -63 3 -54 19 4 5 1 9 -5 9 -6 0 -9 4 -5 9 3 5 1 12 -4
15 -11 7 -3 -55 10 -70 5 -6 7 -13 4 -16 -3 -3 1 -24 9 -47 16 -43 16 -44 16
-63 0 -6 3 -8 7 -4 4 4 7 19 8 34 0 25 6 29 105 61 58 18 112 36 120 39 8 3
26 4 40 3 14 -1 21 2 15 6 -6 4 -12 21 -13 36 -2 16 -9 43 -17 60 -7 18 -10
38 -8 45 3 6 -1 12 -7 12 -8 0 -10 -9 -8 -22z"/>
<path d="M12638 8628 c12 -15 12 -51 0 -64 -4 -3 -4 -12 -1 -20 3 -8 0 -14 -6
-14 -6 0 -11 -7 -11 -15 0 -8 -4 -15 -10 -15 -5 0 -10 -7 -10 -15 0 -16 20
-19 58 -9 20 6 22 11 17 48 -10 75 -20 109 -35 114 -12 4 -13 3 -2 -10z"/>
<path d="M3311 8364 c0 -11 3 -14 6 -6 3 7 2 16 -1 19 -3 4 -6 -2 -5 -13z"/>
<path d="M5116 7203 c-4 -4 -12 -8 -19 -9 -55 -9 -72 -15 -75 -24 -2 -5 -7 -8
-12 -5 -12 7 -99 -91 -117 -133 -24 -54 -26 -68 -26 -157 0 -63 5 -90 24 -130
35 -73 99 -131 167 -152 32 -9 62 -16 67 -15 6 1 34 3 63 6 29 2 58 9 65 14
12 10 18 12 36 12 5 0 32 22 60 50 63 63 91 140 87 245 -3 83 -4 88 -34 140
-13 22 -25 48 -29 57 -3 10 -14 20 -24 23 -10 4 -19 10 -19 14 0 13 -83 49
-120 53 -19 2 -38 8 -42 13 -5 6 -8 5 -8 -3 0 -9 -5 -10 -19 -3 -10 6 -21 7
-25 4z m76 -42 c4 -1 21 -14 37 -30 61 -59 81 -235 47 -400 -6 -28 -31 -69
-59 -95 -30 -29 -106 -27 -136 3 -81 81 -97 341 -29 463 30 52 69 69 140 59z"/>
<path d="M10914 7200 c-3 -3 -9 -5 -12 -5 -58 -4 -183 -71 -165 -88 3 -4 1 -7
-5 -7 -9 0 -44 -51 -47 -70 -1 -3 -4 -15 -9 -27 -28 -84 -19 -221 19 -279 9
-13 13 -24 9 -24 -12 0 74 -79 102 -93 65 -33 146 -36 254 -8 74 20 119 44
121 64 0 6 1 41 2 77 2 63 3 65 34 80 35 16 45 40 16 35 -10 -1 -26 2 -35 6
-10 6 -19 5 -23 -1 -4 -6 -11 -7 -17 -4 -17 11 -169 7 -180 -4 -8 -8 1 -16 31
-28 22 -9 42 -19 43 -23 0 -3 2 -37 3 -76 3 -87 -15 -110 -86 -110 -51 0 -119
38 -119 67 0 9 -5 18 -11 20 -26 9 -41 200 -24 307 24 150 166 209 249 103 29
-37 75 -129 69 -136 -4 -3 -1 -6 5 -6 19 0 23 18 23 103 0 104 -6 121 -33 106
-15 -8 -33 -7 -67 2 -25 8 -49 14 -53 15 -5 1 -9 2 -10 4 -6 5 -79 5 -84 0z"/>
<path d="M3997 7182 c-14 -3 -16 -7 -6 -18 6 -8 18 -14 25 -14 8 0 23 -14 34
-32 18 -29 19 -49 16 -232 -3 -213 -10 -251 -48 -253 -25 -2 -45 -20 -34 -30
7 -7 195 -13 208 -6 10 5 -2 33 -14 33 -5 0 -23 9 -38 20 -20 14 -28 29 -29
52 -5 205 -5 401 1 404 5 3 8 4 8 2 0 -2 25 -77 56 -168 31 -91 57 -170 58
-177 1 -7 5 -16 9 -19 4 -4 7 -13 7 -20 0 -7 9 -37 20 -66 27 -72 52 -75 76
-10 9 26 23 65 31 87 8 22 16 47 18 57 2 9 10 29 19 46 8 16 12 32 9 36 -4 3
-1 6 6 6 7 0 10 4 7 9 -3 4 6 37 20 72 14 35 27 71 29 79 5 24 24 70 28 70 6
0 6 -432 1 -452 -3 -9 -20 -22 -39 -28 -40 -13 -37 -35 5 -36 20 -1 27 2 23
10 -5 8 -3 8 8 0 8 -6 56 -10 109 -10 77 1 95 4 95 16 0 8 -10 16 -22 18 -42
6 -45 21 -45 239 0 280 -1 273 17 273 8 0 15 5 15 11 0 5 4 8 8 5 4 -2 14 0
22 5 28 17 -6 24 -108 23 -105 -1 -122 -5 -122 -33 0 -9 -14 -55 -30 -101 -17
-47 -33 -92 -35 -100 -11 -36 -42 -116 -51 -133 -8 -14 -15 -2 -38 65 -15 46
-30 90 -33 98 -3 8 -7 20 -9 25 -1 6 -16 48 -33 95 l-31 85 -103 0 c-56 0
-111 -1 -120 -3z"/>
<path d="M5570 7170 c0 -9 9 -16 21 -17 24 -2 48 -29 49 -55 2 -31 1 -138 -1
-145 -1 -5 -1 -11 0 -15 1 -10 1 -111 0 -128 -2 -22 9 -83 20 -111 33 -88 158
-139 281 -116 56 11 144 88 136 120 -2 9 -1 15 4 12 13 -8 17 36 18 199 0 188
9 223 58 232 19 3 34 10 34 15 0 18 -30 24 -127 24 -89 0 -101 -2 -100 -17 1
-9 13 -19 29 -22 52 -10 61 -40 62 -212 3 -238 -21 -293 -127 -302 -69 -5
-113 16 -135 66 -13 29 -16 76 -17 222 -1 102 0 193 3 203 2 9 15 20 28 23 13
3 29 13 36 22 10 12 10 14 1 8 -7 -4 -13 -4 -13 1 0 4 -58 8 -130 8 -110 0
-130 -2 -130 -15z"/>
<path d="M6284 7179 c-6 -10 21 -36 45 -44 39 -12 46 -52 45 -236 -1 -96 -2
-186 -3 -200 -1 -34 -46 -79 -72 -74 -15 3 -19 -1 -17 -13 3 -15 18 -17 111
-18 60 0 111 4 114 9 7 11 -9 28 -30 31 -27 4 -46 27 -53 64 -7 36 -12 342 -6
342 7 0 29 -26 62 -75 19 -27 38 -52 41 -55 3 -3 27 -35 53 -72 26 -38 52 -68
57 -68 5 0 8 -3 7 -7 -2 -5 24 -45 56 -90 54 -75 63 -83 92 -83 l33 0 3 260
c3 248 4 260 24 280 11 12 29 23 40 24 10 2 19 9 19 17 0 10 -23 13 -105 14
-92 0 -105 -2 -108 -17 -2 -12 3 -18 15 -18 23 -1 47 -19 58 -45 7 -18 16
-315 9 -315 -2 0 -26 30 -53 68 -28 37 -54 72 -59 77 -4 6 -18 26 -32 45 -13
19 -30 42 -37 50 -7 8 -36 46 -63 85 l-50 69 -95 1 c-53 1 -98 -2 -101 -6z"/>
<path d="M7001 7146 c-1 -22 -4 -43 -7 -47 -2 -4 0 -10 5 -13 5 -4 8 -17 5
-31 -7 -37 14 -40 36 -3 10 18 20 38 21 43 1 6 13 20 26 33 20 18 35 22 67 20
l41 -3 0 -243 c0 -265 1 -262 -57 -276 -16 -3 -28 -12 -28 -19 0 -19 291 -18
298 1 2 7 -9 15 -27 18 -17 4 -31 11 -31 16 0 5 -4 7 -9 4 -14 -9 -16 33 -16
274 l1 225 40 3 c48 4 71 -13 106 -80 18 -34 28 -44 38 -38 8 5 11 12 8 15 -4
4 -3 17 2 29 4 13 4 29 0 36 -5 8 -5 19 0 25 5 6 3 19 -3 30 -12 20 -21 21
-263 21 l-250 -1 -3 -39z"/>
<path d="M7874 7182 c-10 -6 -22 -31 -25 -50 0 -4 -4 -11 -8 -17 -9 -11 -25
-66 -23 -77 1 -5 -2 -8 -6 -8 -4 0 -16 -26 -27 -57 -10 -32 -22 -62 -26 -68
-4 -5 -19 -45 -33 -87 -44 -131 -63 -165 -106 -184 -62 -27 -41 -40 70 -40 73
-1 100 2 104 12 6 16 -4 23 -38 26 -17 2 -26 8 -26 20 0 10 -5 18 -11 18 -8 0
-9 4 0 13 6 8 8 17 4 20 -3 4 -1 7 6 7 6 0 11 6 10 13 -1 6 3 24 9 39 10 24
16 27 79 30 102 5 120 1 131 -30 15 -39 22 -62 20 -65 -1 -1 4 -11 10 -23 14
-26 -1 -44 -34 -44 -26 0 -36 -11 -26 -26 10 -15 274 -12 279 3 3 7 -11 19
-30 26 -29 13 -39 26 -65 89 -17 40 -38 96 -47 123 -8 28 -20 58 -25 67 -6 10
-10 26 -10 36 0 10 -4 22 -9 28 -5 5 -23 50 -42 99 -18 50 -38 95 -44 100 -12
13 -47 16 -61 7z m-10 -183 c-3 -5 -1 -9 4 -9 5 0 12 -10 15 -22 3 -13 14 -48
26 -78 12 -30 21 -56 21 -57 0 -2 -36 -3 -80 -3 -72 0 -97 9 -71 25 8 4 43
102 45 127 1 3 4 10 9 14 4 4 7 17 7 28 1 20 1 20 15 2 8 -10 12 -23 9 -27z"/>
<path d="M8302 7174 c-14 -10 -10 -14 26 -25 23 -6 43 -15 43 -18 1 -3 3 -112
3 -241 2 -252 1 -258 -48 -262 -16 -2 -26 -8 -26 -18 0 -13 21 -16 141 -17
118 -1 139 2 135 14 -3 8 -1 11 4 8 6 -3 10 -1 10 4 0 6 -13 11 -29 11 -16 0
-34 6 -40 14 -15 18 -16 473 -1 491 6 7 24 15 40 19 33 6 39 20 14 30 -10 4
-13 2 -8 -6 5 -7 3 -8 -7 -2 -21 13 -239 11 -257 -2z"/>
<path d="M8712 7182 c-14 -4 -4 -32 12 -32 6 0 25 -12 41 -26 l30 -26 0 -213
c0 -195 -2 -215 -19 -234 -11 -12 -27 -21 -36 -21 -20 0 -45 -26 -33 -33 4 -3
56 -4 116 -4 118 1 134 11 70 44 -24 13 -40 29 -45 48 -8 32 -14 343 -6 351 3
2 16 -11 29 -31 13 -19 27 -35 32 -35 4 0 7 -6 7 -14 0 -8 4 -16 8 -18 4 -1
37 -43 72 -93 36 -49 67 -92 70 -95 3 -3 17 -21 30 -40 13 -19 29 -38 35 -42
5 -4 6 -8 2 -8 -4 0 4 -12 18 -27 14 -15 25 -31 25 -35 0 -9 41 -11 62 -3 10
4 13 53 12 241 -1 129 1 247 5 262 5 17 21 35 44 47 20 11 35 24 34 30 -3 9
-179 16 -204 7 -24 -8 -13 -30 16 -37 43 -9 54 -29 58 -103 5 -85 4 -195 -2
-200 -2 -3 0 -13 5 -23 17 -30 -7 -32 -27 -2 -19 29 -22 34 -51 70 -9 11 -24
31 -32 43 -8 12 -23 32 -33 43 -10 12 -26 34 -35 50 -9 15 -20 27 -24 27 -4 0
-8 6 -8 13 0 6 -14 26 -30 44 -17 18 -30 36 -30 41 0 24 -35 35 -118 37 -49 0
-93 0 -100 -3z"/>
<path d="M9450 7172 c0 -7 14 -18 30 -24 17 -5 35 -18 40 -28 6 -11 10 -114
10 -237 0 -230 -3 -249 -45 -256 -20 -2 -25 -8 -25 -26 0 -12 263 -10 272 3
10 15 -1 26 -27 26 -13 0 -29 8 -34 18 -8 16 -16 77 -11 95 5 18 3 65 -3 80
-3 9 -3 17 2 17 4 0 6 10 4 23 -4 19 0 22 31 22 20 0 36 -4 36 -9 0 -5 7 -3
15 4 12 10 18 10 29 1 8 -7 17 -8 20 -3 6 10 48 8 67 -4 8 -4 9 -3 5 4 -5 8
-2 10 8 6 17 -6 18 -19 18 -158 1 -67 -2 -80 -18 -90 -11 -5 -26 -10 -34 -11
-8 0 -16 -7 -18 -16 -2 -13 15 -15 137 -15 106 0 142 4 146 14 3 8 -6 15 -26
19 -52 10 -54 21 -53 264 2 267 0 249 19 249 8 0 15 4 15 9 0 5 8 8 17 7 10 0
19 6 20 14 3 13 -16 15 -131 15 -151 0 -181 -10 -116 -39 43 -19 42 -18 42
-116 -1 -107 -2 -121 -12 -115 -12 7 -153 10 -166 3 -16 -8 -70 7 -56 15 9 6
9 13 2 28 -6 10 -7 19 -2 19 4 0 5 25 2 56 -3 30 -3 57 1 60 5 3 6 11 2 20 -4
10 6 19 35 31 72 28 43 38 -108 38 -109 0 -140 -3 -140 -13z"/>
<path d="M10250 7177 c0 -4 -4 -5 -10 -2 -5 3 -10 1 -10 -5 0 -11 40 -30 51
-24 4 2 13 -3 20 -12 10 -12 14 -70 14 -243 1 -124 -2 -234 -7 -243 -5 -10
-19 -18 -31 -18 -24 0 -62 -20 -39 -20 7 0 11 -4 8 -9 -4 -6 238 -9 278 -2 16
2 -16 31 -35 31 -40 0 -44 26 -43 264 1 243 3 255 52 259 20 1 41 26 24 28
-38 6 -272 3 -272 -4z"/>
<path d="M11360 7180 c1 -14 18 -29 42 -35 15 -4 29 -12 31 -19 3 -7 5 -119 5
-249 l0 -237 -39 -10 c-25 -7 -36 -15 -33 -24 4 -10 38 -13 145 -12 114 0 139
3 134 14 -3 7 -5 16 -5 18 0 2 -9 4 -21 4 -42 0 -50 22 -48 143 l1 113 29 -1
c16 0 29 -4 29 -8 0 -5 6 -5 12 -1 18 11 48 12 54 2 3 -4 14 -4 24 2 13 7 21
7 25 0 5 -8 11 -8 19 -1 9 8 17 6 27 -7 11 -13 14 -43 13 -120 -1 -57 -6 -108
-11 -113 -5 -5 -21 -10 -36 -11 -17 -2 -27 -8 -27 -18 0 -14 18 -16 138 -16
114 1 137 3 137 16 0 8 -9 16 -20 18 -49 9 -50 16 -49 259 0 125 4 236 8 246
5 9 19 17 31 17 24 0 42 16 31 27 -3 4 -67 7 -141 8 -124 1 -135 0 -135 -17 0
-10 7 -18 18 -18 37 -1 53 -26 56 -89 1 -33 -1 -66 -5 -72 -4 -7 -3 -24 1 -40
l8 -28 -86 -1 c-124 -1 -133 -1 -143 6 -5 3 -9 50 -9 105 0 99 0 100 28 111
15 6 30 12 34 12 13 2 20 15 13 25 -4 7 -12 8 -24 1 -10 -5 -22 -6 -26 -2 -8
8 -235 10 -235 2z"/>
<path d="M5930 6137 c0 -6 -3 -8 -6 -4 -4 3 -19 0 -35 -9 -16 -8 -29 -12 -29
-8 0 16 -42 -49 -51 -78 -23 -82 24 -147 135 -188 40 -15 75 -34 83 -47 17
-25 24 -83 10 -83 -4 0 -6 -4 -3 -9 6 -9 -44 -35 -52 -26 -3 2 -10 1 -16 -4
-16 -12 -76 7 -76 25 0 8 -4 13 -8 10 -5 -3 -24 21 -43 54 -18 32 -37 56 -41
54 -9 -6 -3 -137 7 -154 6 -10 9 -10 15 0 6 10 15 10 44 0 21 -6 45 -13 54
-15 9 -2 19 -4 22 -5 3 -1 10 -1 15 0 6 1 26 3 46 5 20 2 47 9 60 16 21 11 32
21 67 64 4 6 9 31 11 58 3 60 -24 108 -76 130 -59 24 -77 30 -85 29 -5 -1 -8
3 -8 9 0 5 -4 8 -9 5 -16 -10 -70 52 -66 75 9 45 17 56 51 72 21 10 32 12 28
5 -5 -7 -2 -9 8 -5 18 6 81 -41 72 -54 -3 -5 0 -9 5 -9 6 0 11 -9 11 -20 0
-11 5 -20 10 -20 6 0 10 -10 10 -22 0 -17 3 -19 12 -10 15 15 21 121 8 141 -7
12 -11 13 -24 1 -14 -11 -19 -10 -34 4 -10 9 -21 14 -24 11 -2 -3 -26 -1 -51
4 -32 6 -47 5 -47 -2z"/>
<path d="M6480 6138 c0 -4 -6 -5 -13 -2 -7 2 -29 -2 -48 -10 -139 -60 -187
-252 -95 -385 29 -42 99 -86 122 -77 9 3 12 2 9 -5 -5 -7 12 -9 49 -8 56 2
125 26 149 51 58 60 80 119 78 207 -2 113 -72 203 -176 227 -38 9 -75 10 -75
2z m109 -91 c19 -39 24 -64 24 -135 0 -105 -4 -137 -26 -178 -29 -56 -75 -72
-129 -43 -35 19 -59 91 -61 182 -2 137 21 210 76 238 29 14 34 14 62 -1 17 -9
40 -36 54 -63z"/>
<path d="M7738 6132 c-44 -2 -58 -7 -58 -18 0 -8 4 -13 9 -10 14 9 61 -41 62
-66 4 -123 2 -248 -4 -248 -5 0 -6 -4 -3 -9 9 -14 -24 -66 -50 -78 -41 -19
-102 -10 -132 20 l-27 27 0 168 0 167 28 13 c15 7 25 17 22 21 -2 5 -48 9
-101 10 -76 1 -94 -1 -88 -11 6 -10 3 -9 -9 1 -15 12 -17 11 -17 -3 0 -9 6
-16 13 -16 38 -1 42 -15 43 -175 2 -163 7 -191 49 -228 59 -53 161 -63 232
-22 23 14 43 32 43 40 0 8 4 15 9 15 18 0 25 46 26 182 2 146 14 188 54 188
10 0 18 6 18 14 0 17 -38 22 -119 18z"/>
<path d="M8962 6118 c-107 -56 -156 -214 -104 -330 56 -124 186 -171 307 -111
138 68 170 275 62 399 -52 60 -189 81 -265 42z m164 -31 c30 -33 45 -87 49
-173 4 -120 -29 -224 -71 -224 -8 0 -13 -4 -10 -8 3 -5 -12 -7 -32 -5 -71 5
-106 80 -105 225 0 124 31 198 88 210 33 7 58 0 81 -25z"/>
<path d="M9476 6132 c-2 -2 -15 -4 -30 -5 -14 -1 -26 -5 -26 -9 0 -5 2 -8 6
-8 3 1 18 -13 34 -30 l28 -30 -1 -163 c-1 -149 -3 -164 -22 -183 -11 -11 -24
-20 -30 -21 -5 -1 -11 -5 -12 -10 -2 -5 35 -9 82 -10 91 -1 112 13 55 37 -16
7 -31 20 -32 29 0 9 -2 28 -3 42 -1 14 -5 31 -9 38 -4 6 -4 11 1 11 4 0 8 20
8 45 0 25 -4 45 -9 45 -5 0 -3 6 3 14 8 10 9 16 1 21 -6 3 -7 12 -3 18 4 7 6
21 5 32 -2 16 2 14 25 -12 15 -17 39 -47 53 -67 14 -20 35 -49 47 -64 13 -15
23 -33 23 -39 0 -7 4 -13 8 -13 7 0 55 -63 94 -123 3 -6 20 -12 36 -13 l29 -2
-1 190 c-1 104 2 192 7 195 4 2 5 9 2 14 -4 5 -1 9 4 9 6 0 11 7 11 15 0 8 6
15 14 15 7 0 19 6 25 14 10 12 -2 14 -79 14 -49 0 -90 -4 -90 -9 0 -4 13 -15
29 -24 38 -19 44 -39 46 -162 1 -114 -5 -124 -46 -65 -74 107 -164 229 -179
243 -14 14 -95 31 -104 21z"/>
<path d="M6872 6122 c-8 -6 -2 -13 21 -24 l33 -16 2 -168 c2 -197 -1 -222 -30
-226 -12 -2 -23 -8 -25 -14 -2 -7 56 -11 187 -11 104 0 190 2 191 6 0 3 3 37
5 76 5 68 5 69 -13 48 -11 -12 -27 -37 -38 -56 -20 -37 -44 -47 -115 -47 -30
0 -39 5 -48 25 -13 28 -17 330 -6 360 4 9 17 21 30 26 13 4 24 14 24 21 0 9
-3 8 -10 -2 -5 -8 -10 -10 -10 -3 0 13 -177 18 -198 5z"/>
<path d="M7958 6118 c-7 -18 -2 -107 5 -115 4 -3 10 3 14 13 4 10 17 30 30 44
13 14 23 27 23 30 0 4 17 7 38 8 l38 3 1 -191 c1 -162 -1 -194 -14 -210 -9
-10 -22 -16 -29 -13 -8 3 -14 -1 -14 -10 0 -13 18 -15 110 -14 83 1 110 4 110
14 0 7 -7 13 -16 13 -40 0 -44 21 -44 220 l0 191 39 -2 c34 -3 42 -8 71 -52
18 -27 35 -45 39 -39 3 5 6 34 6 64 l-1 53 -201 3 c-155 2 -202 0 -205 -10z"/>
<path d="M8475 6120 c-3 -5 9 -16 28 -23 l33 -15 0 -183 c-1 -179 -6 -214 -33
-214 -7 0 -13 -4 -13 -10 0 -6 43 -11 105 -12 85 -1 105 1 105 13 0 8 -9 14
-20 14 -32 0 -38 34 -38 216 0 170 5 194 38 194 9 0 17 7 17 15 0 12 -19 15
-108 15 -59 0 -111 -4 -114 -10z"/>
<path d="M4290 5924 c0 -34 265 -464 314 -509 6 -5 23 -28 39 -51 15 -22 35
-49 45 -60 9 -10 44 -53 77 -94 66 -82 349 -369 434 -440 29 -25 63 -53 75
-64 11 -10 37 -30 56 -45 19 -14 46 -36 60 -49 14 -12 66 -50 115 -84 50 -34
92 -65 93 -70 2 -4 8 -8 13 -8 8 0 87 -47 99 -60 3 -3 21 -14 40 -24 19 -11
37 -22 40 -25 3 -3 21 -14 40 -24 71 -38 95 -52 101 -60 3 -5 10 -9 15 -10 5
0 77 -33 159 -73 209 -100 528 -222 628 -239 16 -3 35 -9 40 -12 6 -4 27 -10
46 -14 20 -5 54 -12 76 -18 105 -25 183 -42 210 -46 17 -2 30 -4 30 -5 0 -1
14 -4 30 -5 17 -2 44 -6 60 -9 62 -12 105 -18 225 -31 211 -24 651 -24 825 0
40 5 122 15 165 20 19 2 49 7 65 10 17 3 41 8 55 10 14 3 43 8 65 11 47 7 70
12 70 14 0 1 7 3 15 5 31 6 135 29 145 31 16 5 75 21 140 38 33 9 65 18 70 20
6 2 12 4 15 4 3 0 23 7 45 15 22 8 74 27 115 42 41 15 82 29 90 32 8 4 17 7
20 8 25 8 68 27 82 35 10 6 25 10 33 10 8 0 15 4 15 8 0 5 6 9 13 9 15 0 318
150 374 186 24 15 45 27 47 27 3 0 25 14 49 30 25 17 49 30 53 30 5 0 25 14
44 30 19 16 41 30 48 30 6 0 12 5 12 10 0 6 6 10 13 10 7 0 22 8 33 18 10 10
42 33 69 52 28 19 52 37 55 40 3 3 34 27 70 55 36 27 67 52 70 55 3 3 34 30
70 60 36 30 85 74 109 97 25 24 48 43 52 43 4 0 11 9 14 21 4 11 9 18 11 16 5
-5 19 8 144 140 111 118 175 194 172 204 -1 5 2 9 7 9 6 0 43 44 83 98 40 53
76 99 81 100 4 2 7 7 7 12 0 7 108 171 130 197 5 7 10 14 10 17 0 3 25 46 55
96 30 49 52 90 49 90 -4 0 -1 7 6 15 16 19 -16 27 -94 23 -57 -3 -59 -4 -80
-43 -11 -22 -24 -41 -28 -43 -5 -2 -8 -8 -8 -14 0 -6 -43 -75 -96 -155 -95
-144 -114 -170 -146 -205 -10 -10 -18 -22 -18 -28 0 -5 -6 -13 -12 -17 -7 -4
-29 -30 -49 -56 -90 -117 -339 -376 -465 -484 -147 -125 -266 -216 -409 -310
-60 -40 -115 -77 -121 -82 -7 -5 -14 -8 -17 -5 -2 2 -10 -2 -17 -11 -7 -8 -18
-15 -25 -15 -8 0 -15 -3 -17 -7 -8 -19 -347 -187 -500 -249 -27 -10 -48 -23
-48 -27 0 -5 -4 -6 -9 -3 -5 3 -50 -10 -100 -29 -49 -19 -97 -35 -106 -35 -8
0 -23 -4 -33 -10 -16 -9 -177 -56 -218 -64 -10 -2 -37 -9 -59 -14 -22 -6 -57
-13 -79 -16 -21 -4 -41 -8 -45 -10 -3 -2 -31 -7 -61 -11 -30 -4 -57 -11 -58
-16 -2 -5 -8 -7 -12 -4 -5 3 -39 1 -77 -4 -197 -29 -296 -35 -558 -35 -205 0
-386 8 -445 19 -14 3 -50 7 -80 9 -30 2 -62 7 -70 9 -8 3 -49 11 -90 18 -41 7
-77 13 -80 14 -8 2 -104 19 -112 20 -3 0 -10 3 -14 8 -4 4 -16 7 -27 7 -12 0
-34 4 -51 10 -43 14 -298 90 -316 94 -33 8 -270 107 -355 147 -49 24 -92 43
-95 44 -3 0 -40 19 -82 43 -42 23 -82 42 -88 42 -5 0 -10 4 -10 8 0 5 -17 16
-38 25 -21 9 -96 55 -167 102 -70 47 -131 85 -136 85 -4 0 -9 3 -11 8 -1 4
-41 36 -88 71 -86 64 -161 125 -211 171 -81 75 -99 90 -109 90 -6 0 -9 4 -6 8
3 5 -7 17 -21 28 -24 17 -69 62 -186 187 -24 26 -43 47 -42 47 2 0 -9 13 -23
28 -36 38 -102 114 -102 118 0 4 -11 18 -53 67 -10 12 -26 34 -35 50 -9 15
-20 27 -24 27 -4 0 -8 6 -8 14 0 8 -4 16 -8 18 -9 3 -143 200 -155 228 -4 8
-16 29 -27 45 -11 17 -23 37 -27 45 -20 43 -36 50 -110 50 -40 0 -73 -3 -73
-6z"/>
<path d="M6063 5326 c0 -9 8 -16 18 -16 10 0 21 -6 25 -12 8 -13 13 -363 6
-385 -2 -7 -16 -13 -31 -13 -23 -1 -24 -2 -9 -14 15 -11 91 -14 173 -7 19 2
19 2 -3 21 -18 15 -23 29 -23 72 -2 110 -6 103 57 105 30 1 70 9 89 17 37 18
78 63 69 77 -3 5 -1 9 3 9 13 0 8 71 -7 101 -20 43 -53 51 -216 56 -132 4
-151 3 -151 -11z m250 -45 c28 -48 26 -124 -4 -149 -12 -9 -26 -21 -33 -27
-13 -11 -41 -13 -51 -3 -7 6 -9 84 -6 176 1 32 2 33 40 31 30 -2 42 -9 54 -28z"/>
<path d="M6530 5330 c0 -4 16 -18 36 -29 20 -12 34 -25 30 -28 -3 -3 -1 -12 4
-18 6 -7 28 -61 49 -121 48 -135 78 -212 93 -241 12 -25 43 -30 62 -10 15 16
58 127 48 127 -4 0 -2 4 3 8 6 4 17 26 23 50 7 23 17 42 21 42 5 0 8 10 7 23
-1 12 2 25 6 28 5 3 17 30 27 60 14 40 28 60 55 78 48 32 31 43 -61 39 -70 -3
-95 -21 -44 -31 32 -7 32 -7 14 -82 -9 -40 -8 -36 -22 -70 -7 -16 -14 -34 -15
-40 -1 -5 -13 -38 -26 -73 l-23 -63 -15 33 c-8 18 -15 39 -15 46 0 6 -4 12 -9
12 -4 0 -8 6 -8 14 0 8 -16 56 -35 106 -27 70 -33 96 -25 110 6 11 17 17 25
14 9 -4 15 0 15 9 0 13 -17 16 -110 16 -60 -1 -110 -4 -110 -9z"/>
<path d="M7104 5276 c0 -75 10 -77 51 -11 17 26 33 41 41 38 8 -3 14 -1 14 5
0 11 39 4 42 -7 0 -3 2 -91 3 -194 2 -178 1 -189 -18 -202 -11 -8 -25 -11 -30
-8 -5 3 -8 0 -5 -8 4 -11 30 -14 114 -14 68 0 108 4 107 10 -2 6 -9 10 -15 10
-7 0 -20 7 -29 15 -14 13 -16 43 -17 203 0 184 0 188 21 196 12 5 24 5 25 0 2
-5 7 -7 12 -4 8 5 64 -64 73 -89 2 -6 7 -8 11 -5 8 7 14 99 8 116 -3 10 -54
13 -206 13 l-201 -1 -1 -63z"/>
<path d="M8160 5326 c0 -6 14 -17 30 -23 l30 -11 0 -190 c0 -171 -2 -191 -17
-198 -10 -4 -22 -8 -27 -8 -5 -1 -11 -6 -13 -12 -3 -8 55 -11 191 -11 l194 0
4 60 c4 76 -12 104 -30 53 -8 -20 -18 -36 -23 -36 -5 0 -9 -7 -9 -15 0 -31
-104 -49 -147 -27 -16 9 -18 27 -17 196 0 171 2 187 19 200 11 8 25 12 32 9 7
-3 13 2 13 11 0 15 -14 17 -115 15 -80 -1 -115 -5 -115 -13z"/>
<path d="M8647 5327 c-3 -10 -3 -76 2 -111 1 -11 31 13 31 26 0 5 6 16 14 24
8 7 16 18 18 24 2 6 13 12 26 15 12 2 26 6 31 10 21 12 26 -28 27 -208 1 -178
0 -189 -19 -202 -11 -8 -24 -12 -29 -9 -4 3 -8 -1 -8 -9 0 -12 20 -15 110 -15
109 0 143 10 98 27 -13 5 -26 7 -29 5 -13 -8 -18 45 -17 211 1 168 7 213 31
198 7 -4 21 -9 31 -10 21 -4 45 -30 46 -50 0 -7 5 -13 10 -13 6 0 10 -7 10
-15 0 -8 6 -12 13 -10 8 3 12 26 12 63 l0 57 -202 2 c-152 2 -202 0 -206 -10z"/>
<path d="M9170 5326 c0 -10 9 -16 24 -16 17 0 27 -7 32 -22 11 -35 10 -138 -1
-138 -7 0 -7 -3 0 -8 6 -4 10 -20 10 -37 0 -16 -4 -33 -10 -37 -7 -5 -7 -8 0
-8 9 0 11 -46 6 -129 -1 -11 -14 -24 -31 -31 -16 -7 -30 -16 -30 -20 0 -8 254
-5 294 4 129 30 203 170 157 299 -23 64 -49 95 -106 124 -45 24 -64 26 -197
30 -131 4 -148 3 -148 -11z m243 -21 c38 -8 83 -58 95 -105 14 -56 9 -199 -8
-230 -8 -14 -13 -28 -12 -32 1 -5 -5 -8 -14 -8 -8 0 -12 -5 -9 -10 4 -6 3 -10
-2 -9 -4 1 -15 0 -23 -4 -40 -15 -70 -13 -87 5 -15 17 -17 43 -18 194 -1 187
4 214 32 209 10 -2 30 -6 46 -10z"/>
<path d="M7682 4977 c-28 -13 -38 -51 -22 -82 24 -45 86 -39 98 9 15 54 -27
95 -76 73z"/>
</g>
</svg>
